<mxfile host="app.diagrams.net" modified="2024-04-26T17:32:57.670Z" agent="Mozilla/5.0 (Windows NT 10.0; Win64; x64) AppleWebKit/537.36 (KHTML, like Gecko) Chrome/124.0.0.0 Safari/537.36" etag="QMT4mGPNEZaR18UySZkI" version="24.1.0" type="github" pages="2">
  <diagram name="Page-1" id="Z-z7L1DKwrFg4CT5YLwJ">
    <mxGraphModel dx="1687" dy="908" grid="0" gridSize="10" guides="1" tooltips="1" connect="1" arrows="1" fold="1" page="1" pageScale="1" pageWidth="850" pageHeight="1100" math="0" shadow="0">
      <root>
        <mxCell id="0" />
        <mxCell id="1" parent="0" />
        <mxCell id="1tN6UAkhzQt--ZK3ldkU-1" value="Second counter block" style="rounded=0;whiteSpace=wrap;html=1;" vertex="1" parent="1">
          <mxGeometry x="304" y="22" width="253" height="135" as="geometry" />
        </mxCell>
        <mxCell id="1tN6UAkhzQt--ZK3ldkU-6" value="en" style="html=1;verticalAlign=bottom;endArrow=block;curved=0;rounded=0;" edge="1" parent="1">
          <mxGeometry width="80" relative="1" as="geometry">
            <mxPoint x="224" y="53" as="sourcePoint" />
            <mxPoint x="304" y="53" as="targetPoint" />
          </mxGeometry>
        </mxCell>
        <mxCell id="1tN6UAkhzQt--ZK3ldkU-7" value="clk" style="html=1;verticalAlign=bottom;endArrow=block;curved=0;rounded=0;" edge="1" parent="1">
          <mxGeometry width="80" relative="1" as="geometry">
            <mxPoint x="224" y="119" as="sourcePoint" />
            <mxPoint x="304" y="119" as="targetPoint" />
          </mxGeometry>
        </mxCell>
        <mxCell id="1tN6UAkhzQt--ZK3ldkU-11" value="rst_n" style="html=1;verticalAlign=bottom;endArrow=circle;rounded=0;endFill=0;" edge="1" parent="1">
          <mxGeometry x="0.082" y="-20" width="80" relative="1" as="geometry">
            <mxPoint x="431" y="217" as="sourcePoint" />
            <mxPoint x="430.33" y="157" as="targetPoint" />
            <mxPoint as="offset" />
          </mxGeometry>
        </mxCell>
        <mxCell id="1tN6UAkhzQt--ZK3ldkU-13" value="last" style="html=1;verticalAlign=bottom;endArrow=block;curved=0;rounded=0;" edge="1" parent="1">
          <mxGeometry width="80" relative="1" as="geometry">
            <mxPoint x="557" y="50" as="sourcePoint" />
            <mxPoint x="637" y="50" as="targetPoint" />
          </mxGeometry>
        </mxCell>
        <mxCell id="1tN6UAkhzQt--ZK3ldkU-14" value="pre_last" style="html=1;verticalAlign=bottom;endArrow=block;curved=0;rounded=0;" edge="1" parent="1">
          <mxGeometry width="80" relative="1" as="geometry">
            <mxPoint x="557" y="123" as="sourcePoint" />
            <mxPoint x="637" y="123" as="targetPoint" />
          </mxGeometry>
        </mxCell>
        <mxCell id="1tN6UAkhzQt--ZK3ldkU-22" value="" style="shape=image;verticalLabelPosition=bottom;labelBackgroundColor=default;verticalAlign=top;aspect=fixed;imageAspect=0;image=data:image/jpeg,/9j/4AAQSkZJRgABAQAAAQABAAD/4gHYSUNDX1BST0ZJTEUAAQEAAAHIAAAAAAQwAABtbnRyUkdCIFhZWiAH4AABAAEAAAAAAABhY3NwAAAAAAAAAAAAAAAAAAAAAAAAAAAAAAAAAAAAAQAA9tYAAQAAAADTLQAAAAAAAAAAAAAAAAAAAAAAAAAAAAAAAAAAAAAAAAAAAAAAAAAAAAAAAAAAAAAAAAAAAAlkZXNjAAAA8AAAACRyWFlaAAABFAAAABRnWFlaAAABKAAAABRiWFlaAAABPAAAABR3dHB0AAABUAAAABRyVFJDAAABZAAAAChnVFJDAAABZAAAAChiVFJDAAABZAAAAChjcHJ0AAABjAAAADxtbHVjAAAAAAAAAAEAAAAMZW5VUwAAAAgAAAAcAHMAUgBHAEJYWVogAAAAAAAAb6IAADj1AAADkFhZWiAAAAAAAABimQAAt4UAABjaWFlaIAAAAAAAACSgAAAPhAAAts9YWVogAAAAAAAA9tYAAQAAAADTLXBhcmEAAAAAAAQAAAACZmYAAPKnAAANWQAAE9AAAApbAAAAAAAAAABtbHVjAAAAAAAAAAEAAAAMZW5VUwAAACAAAAAcAEcAbwBvAGcAbABlACAASQBuAGMALgAgADIAMAAxADb/2wBDAAMCAgICAgMCAgIDAwMDBAYEBAQEBAgGBgUGCQgKCgkICQkKDA8MCgsOCwkJDRENDg8QEBEQCgwSExIQEw8QEBD/2wBDAQMDAwQDBAgEBAgQCwkLEBAQEBAQEBAQEBAQEBAQEBAQEBAQEBAQEBAQEBAQEBAQEBAQEBAQEBAQEBAQEBAQEBD/wAARCAD9AtADASIAAhEBAxEB/8QAHQABAAICAwEBAAAAAAAAAAAAAAMHBAYCBQgBCf/EAGUQAAECBAQDAgcJCQgNCgUFAAECAwAEBREGBxIhCBMxIkEUFRgyUWGWFhdXWHGBsdLUIzVCVXOTldPVJDM2UlR2kaEJJjc4U3SCsrS1wcLRJSc0RVZiY2Z1dyhEoqSzg4SSlPD/xAAbAQEAAwEBAQEAAAAAAAAAAAAAAQIDBAUGB//EADYRAAIBAgQDBQYFBQEBAAAAAAABAgMRBBIhMQVBUSJhcZGhEzKBscHwBhVSYtEUFiPh8UKS/9oADAMBAAIRAxEAPwD9SKY2BKpdsNTo1k+m/T+qMuMam/e+W/JJ+iMmAEIQgBCEIAQhCAEIQgBCEIAQhCAEIQgBCEIAQirMV5hZiTuPp/L7KyiUCZmqJTWajUpmszDqG9TxUGmGw0L6iEElR2AI2MU5nbjbHDNBzJqc+7U8MVGXwPRpxcg1UtXi6ZVOEO6HGlab221pO4tf0R7GD4NVxc4QclHNl5pvtNJNre2t/wDqOSti40U9G7eXn8fuzPW0dXimozFHwxV6vKaefIyExMtahca0NqUL+q4jTsoczZ3NhmpYopUtJIwkh4ylJmOYVTU4pslLry03s2gq81JGojc2uBGg8eubbmTXCvjfEsi8tFWqEoKLSktglapqaPLBTbvQguOH1Nn5I87E4ephajpVVaS3XTufeua5PQ2o1Y14KcNifL5HE1jbAuH8YKzTwjLmtU2Xnyz7m1q5fMbCtN+dva8bB7leJn4XMI+zK/18Vx/Y2M01ZpcJeE3JxS/GWGQvD86lYIUFMW5ajfrqaW2q/rj1HGBqUJiascQOXVXwhN4hx9hisUytYlk6LNy0vQlMOct5LhKkrLpsQUDui+4qTiI/ecuv5/Un/Nei24ARTONMRZuVfO1zLfL7FFEokjJ4Vlq285P0tU2t112bfZsLLTpAS0n0xc0fmrQeLOZd/srs7QHHXl4WnqecANuFKi0h9J5zbg+WaQW7/wDiKgD2d7leJn4XMI+zK/18PcrxM/C5hH2ZX+vi3IQBWfD7jLF+NcFVSaxzOSM3V6Riiu0FyYkpYsNOokqg9LIWEFStJKWgTv1MWZFP8MX8E8Y/+5GMf9dzUXBAGk54Yuq2X+SuYGPaDyfGeG8LVWryXOTqb58vKOOt6h3p1IFx6I1Gm0DiZqFOlZ/32cIo8JYQ9p9zKzbUkG37964qf+ylZtv5ZcJ1fo1KeWmq42cTQGQ2CVJllgqmlbfg8lKkH8rFk8EmaSs3uGLAuKZkr8YS9NbpdQSsEKExLDlKJvvchKVf5UAdv7leJn4XMI+zK/18dPPVvPbAePcv6bi3G+HK3ScV112jzLErRFSzqAJCamUrSsuq/ClwLW74vSKkzt/h7kp/Ph3/AFLUoAtuEIQBSddr+c+Jc6MSYFwJi+gUSl0Gj0ydtPUlU2467MqmArtBxNgA0na0dh7leJn4XMI+zK/18eNeGTivdx5/ZJszqM5MPOYdxQy5RKE4Uq5ahTSoNqRfudCZhwepXdH6TQBUfuV4mfhcwj7Mr/Xx3OQWMsR4+yrpGJ8WuyrtWfXMszLkqyWmlqafW3qSgk6QQgG1zFhxUfCr/cSo/wDjdR/016ALcivc/cY4hwFlRWsUYUdlWqtLOSTMq5MtcxpCnptlkqUm41ABwm1xFhR4Y/suGcdQy94f6dgvD0y83V8X1ZpALIJWiXl1B1atu7WGh8pEAeik4W4mVJCvfcwjuL/wZX+vj77leJn4XMI+zK/18d1w+5nyuc+SeDMzpZOhdfpDExMtaSOTNBOiYbsf4jqXE/NFhQBSNIxBnThbOrCWBcdYvoFcpOJqRWZwiSpCpR1l2TVKaO0XFXBEyq4t3CLuiosc/wB81lP/ADexZ/nUuLdgBFCyeIs9cd5rZn4bwhjXDtEo+Cq1IUuVam6MqadcD1IkpxalLDifw5lYAt0Ai852cladJv1CdeSzLyrSnnnFdEISCVKPyAEx+bn9ju4oKjmXxbZ3Uyul9EvjydNapSXUq7Hgn3FtoX6fuUtfM0mAPRebHlKSlRwllwnN2jJex1VfF8w9S6GqVm5antoLk2809zFctYbTpSq1wpYI3EYeBsM5y47x5X8aZf5p+K8H4QnZnB+HqfVUzU+mZMmQzOTjxU8Oe6qYS8gOuazZBIPaJOyZk4tlaFnPizMOcdvJ5SZczFQWNBKRNTinHEpPpJbkzYDfteuLB4ecCTuWeRWCcEVVTiqnTaJLipKc85U84nmTKj6y8tw/PAGXkPjSsZj5LYIx9iAMCp4hoMnUZsMI0N811pKlaU3NhcmwvG9xUvCT/ewZV/zSpn+joi2oArbP/F+LMF4Cl6jgmckpSrz1dpFKafnJcvNNpmp1plaigEarJcNtxvHWe5XiZ+FzCPsyv9fHlT+y3cQVWy0oOXGAMJreVVJ+vNYlnUshRKZWRcSWUKt3OPqBHrYPTa/ubLzGEhmDgTD+OKYvVK12my8+0bW2cbCrW7usAaJ7leJn4XMI+zK/18YuDsRZvUbOhnLrMDFFDrcjPYceq7LkhS1Si2nG5hDdiS4rUCF/1Rc0VHUf76ui/wAxZ3/TWYAtyEI6vFOIafhLDNWxTVXktSdIknp6YWq9kttoK1E29QgCmMN1jP8AzDreMn8O4+wzSKZRMTT1FlJaYoaph3lsKAClLDqbk39Ed/7leJn4XMI+zK/18eSf7FPxIVTNTE+b+E8VmYRUalW3MY09L6SFFh9fKfbuf8GRL7f+IY/RKAKDzDRxOYIwBibGjeaeEJlVAo87VEsnDSxzCwwtzTfnbX02+eLowtUZisYZpFXm9PPnpCXmXdIsnWttKjYei5jVeID+4NmT/NGsf6E7GwYB/gLhz/0mT/8AwpgDvoqvPrF+OsNHAFFy+qdOp1Qxfi5uhOzU9KGZbaYNOnpkkICk3OqVQOveYtSPzc/sn/EvWMtM6clsNYZLzpwnWmMX1FptKilxSV6G2lW9LXhH+S4YA9j+5XiZ+FzCPsyv9fD3K8TPwuYR9mV/r4s+i1eQxBR5Gu0t7mydRlmpuXctbU24kKSf6CIzYAp3LTFGacvnNibK/MXENGrLNNwxSK/KTEhTTKFKpqbn2FoUCtWoASaSOnnGLiinqL/fe4y/9t8Nf60rUXDACPP2AqrxFZkyNZxFSsxMLUuRYxHWqVKyrtAU8tDMpPvy6NS+aNRKWgSbCLRzgzGp2UWVmK8zaojmMYapMzUAyOr7iEEttD1rXpQPWodI8af2IvO2s5jZY4ywhi6YeerlJr79XcceSQp1E6tTjit//GDm3pJgD0/7leJn4XMI+zK/18axmdOcS2W+Aa3jtzMzCU8iiSpm1Sww4tBdSki6QrnG1x3x6DireKP+97x5/wCju/SIAsyTdU/JsPrtqcbSs29JAMTRjUz72yn5Bv8AzRGTAFT5y4ozFp+L8B4My7rVLpT+JpifTMzM/ImaSlDDAcASkKTuSet4j9yvEz8LmEfZlf6+PG/G5xWzGW/HXk7QZV540TBTjcxXyhClISJ/7m5qt1LcuQ5b/vJj9IwQoBSSCDuCIAqT3K8TPwuYR9mV/r4lyaxTmLUMYY/wTmJWqVVX8LTkg1KzUhImVSpuYk0PEKSVquQpZF7xa8VJlh/dzzn/AMeon+q2YAtuEIQBDJuJdk2HUzAmAttKg6BYOAjzvn6xNEcupapdpTjqHFFCSpaBZKjbqPVEkAIQhACEIQAhCEAY1N+98t+ST9EZMY1N+98t+ST9EZMAIQhACEIQAhCEAIQhACEIQAhCEAIQhACEIQBWeL8q8VTeM5vHWXmPWsNVGq09um1JMxS0zrbyGyotuIGtBQ4nWoA3Ita42jVcQ8L6KxhevYXYxzNlFaw3IYf8Kn5czT4Mu+XVPuKK08wrJII7NvTbaL2hHpUuLYugoqnK2W1tI37Luru13ble9ttjnnhaVRtyW/e/vkaNhHLT3FY1rtfodWSzRa+226/RxLWS3OpGlT7awqyQtIAUjT1AN+t+xzNpVLquBK54zpsrOeCU6bmJfnspc5Tol3EhaNQOlWlShcb2UR3xtEY9QlJefkJmQmmA+xMsrZcaJtrQpJBT84No4q1epiJZ6ju7JeSsvQ1p040laCNC4eadT5LJXBT8nIy7Dk1h+nuPraaShTqvB0DUogdo27zFixg0Kk0+g0WRolJkUyUlIS7cvLy6ejLaEgJQPkAtGdGRcqTiI/ecuv5/Un/Nei241rH2XeE8zaI3h/GNPXNybM03OtBt9bK23m76FpWghQIueh740jyWsof5FXfaCd/WwBbkUlIYZw23xV1eWRh+mpZGA6dNcsSjYTzzVJxRcta2u++rrfeOx8lrKH+RV32gnf1sd9gDJXL/AC1xBUK/hWjTbU/UJNmTfnJqoPTSlMoWtaWhzVqKQFLKtrX1eqAN+hCEAU/wxfwTxj/7kYx/13NRcEVRO8MGUE7U6jVjR6nLv1WemKjNCWrE2y2uYfcU66vQhwJBUtalGw6mIvJayh/kVd9oJ39bAH3iypdMnuGnNadnadKzExJYExCqWddZStbJNOeuUKIukmwvb0RYWEKdT6fh2niQkZeWD0sy64GWko1rKE3UbDcn0mKxrHCZkxU6RPU2eoVanpablnWHpVeIJwpfQpJCmzqdtZQJG+28XGwwzKsNy0u2G2mUBtCB0SkCwA+aAJIqTO3+HuSn8+Hf9S1KLbjVMw8r8G5pSNPp2M6c7NNUqdFQk1MzLjDjL/Kca1pW2oKHYdcT16KMAbXCKj8lrKH+RV32gnf1sPJayh/kVd9oJ39bAHW4EwzhuQ4kMdykjh6my7FPoGH1yjTUo2hEurVOC7YAsg29Fou6NHy8ygwNljUKrO4So8zLzFVSwmampmedmVvJb1aE3cUogJ1HbYdqN4gBFR8Kv9xKj/43Uf8ATXotyKiTwq5NNrdVLUeqyyXXXH1Ny9bnGmwtaipRCUuAC6iTYDvgC3YpvivpVLmsm6rUpmmyrs5LTdKbZmHGUqcaSqpyupKVEXSDYXA62EZHktZQ/wAirvtBO/rYimeFbJxxLSn6DV55LMwxMJYfrk2ttS23ErSVJW7pUApIVY9bQBa9Np1PpcqmVpsjLyjNyvlsNJbTqUbqNkgC5O5MZUfAABYdBH2AKixz/fNZT/zexZ/nUuLdjS8wsoMCZoTNLncX02YfmaMl9Ek/Lzjss40l7l81IU2pJIVym7g/xRGr+S1lD/Iq77QTv62ALYfYYmmHJaZZQ6y6gocbWkKStJFiCDsQR3RR2R9CoUrnRnwZejSDIp+L6UmV0S6E+DpOGaTcIsOwPktHc+S1lD/Iq77QTv62OScgaVQMG4nwflbVpvBjmKp1D1Uq11VCcfQZdplamluufc3OU2ltK1aggp1aDtAFCu1pvM3C1cqiJNxYz2zTbo0inUE83D9JcRLrWLnspW3Tple9ifCNhuL+0l+Yr5DFW4QyDo+FcZUjEPjbnUnCFHRQ8I0RqVDTFIl+WhDrilalKffXo/fDpASbaSSVG0yLixgCpuEn+9gyr/mlTP8AR0RbUU5T+ErJOlSMvTKZRqvKSkq2llhhmuzqG2kJFkpSkO2AA7hE/ktZQ/yKu+0E7+tgDE4n6NR3sJ0WqvUqTXOqxbhmWVMqYSXSyKswQ2V2vpupR03t2j6YuGTkpOnSzclT5RmWl2hZDTLYQhA9ASNhFVNcMOUUlP0+pooVVnHqfOy86wiYrU062h1pwLQsoW4Uq0qAVYg9ItuAEVHUf76ui/zFnf8ATWYtyNFx9krl9mVV5KvYrpk07UKfLrlJeYlp56WWllagpSCWlJuCpIO/ogDeohnJKTqMo9IVCUZmpWZbU08w82FtuIULFKknYgjYgxVPktZQ/wAirvtBO/rYeS1lD/Iq77QTv62AMTh2o1HYmswpxilSbb8vjqtMMuoYSFttlxN0JIFwnYbDbaLnjVsusu8K5ZUN/D+EKS7ISj069OOB2ZW+t55xV1OKWtRUSfWY2mANB4gP7g2ZP80ax/oTsbBgH+AuHP8A0mT/APwpjsK7RaZiWiVDDlalUzNPqsq7JTbKiQHGXUFC0m2+6VEfPFXtcKuTrLaGWadW0NtpCUpTX50BIHQAc3YQBb0UhxBUOiu43yXnXKPJLmJzMVpmZdVLoK3mxQ6tZC1WupI9B2js/Jayh/kVd9oJ39bE9I4bcqMP4moeKZGhVKZn6JOKm5Jyaq8y+iWeLDrXN0OOFJOlxaRsSNd+6ALQlpaWk5duVk5dthhpIQ222gJQhI6AAbARLCEAU9Rf773GX/tvhr/Wlai4Yr3G+Q+WuYWJxjHElKnFVfwBqmKmZWovyylSzTjrjbauUtIISt90i/8AHMdL5LWUP8irvtBO/rYAtOoU2nVeUXIVWQlp2VcKVLYmGkuNqKVBSSUqBBsoAj0EAxUfC7S6YxgiszzFOlW5k4xxQyXkMpC+WKzN2RqAvpHo6Rk+S1lD/Iq77QTv62N5y/wNhvLrDDOFcKUpVPp7D8w8lpbynlqW66pxa1LUSVFSlFVyb7wBscVbxR/3vePP/R3fpEWlHU4swtQ8b4aqWEcTSQm6VVpdcrNsFRTzG1CxFwQR8ogDNpn3tlPyDf8AmiMmKjHCzlAkBKZGugDYAYgnf1sPJayh/kVd9oJ39bAHX5q4dw+/nllYt+hU9xVSmKz4aVyqCZm0ihI5lx27JSkDVfYAd0XUhCGkJaaQlCEAJSlIsAB0AEVphjh7yxwdiun4uotEqDlTkEPIl5iaqsxMJlw4kBVkOrIuoC1wIs2AEVJlh/dzzn/x6if6rZi24rbFXD3lfjHE09i+s0qfTVakGhNvStTmZYPctAQgqS2tIJCQBe3dAFkwio/Jayh/kVd9oJ39bDyWsof5FXfaCd/WwBa8qlSJZlC22m1JQkFDRuhJt0TsNvRsIljrsO0iToFAp1Dp8s5Ly0hKtSzLTjpdW2hCQAlSySVEAbkk363jsYAQhCAEIQgBCEIAxqb975b8kn6IyYxqb975b8kn6IyYAQhCAEIQgBCEIAQhCAEIQgBCEIAQhCAEIQgBCKzzqzrpeUMvR2Hk09dRrswqXlBUJ5MnKoCE6lrddIOkAegEkkC0aHK8WiKhhZ2fo+GafV63KYkp2HXpOnVdL0s6qcVZt1mY0gKHqUlNjcG0eph+DY3FUlXpQvFuyd0udub2vpfa5y1cZQoScKkrNK/wSb+SueiI4O2LSwQojSbhPU/JFfZd5kYkxFiuv4FxrhWVolaobEtOaZOf8LYel39WhQWUIIUChQIt6N4sF3ZpZKlJ7J3SLkbdR644cRh54afs6m9k9GmrNXWq02N6dSNVXj/B8YADDYSlaRoFgsnUNu+/fEkRsEFhsha1jQO0sWUdup6b/NEkYlxCEIARCkJ8LWdDmrlpuok6CLq2A6X9PyiJohSR4Ysc10nlJ7BHYG6twbdT379w29IE0IQgBCEIAgnQlUm+laHVpLSgUtEhahY7JI3v6LRT6c0c6sV4mxLI5Y5c4RnqJh2pKpPh9ZxJMybkzMIQlTuhtuTdASkr031bkGLHzCxVTMDYDxHjOszTktIUKlTVRmHmykLQ200painVtqsna4O9o1nh6wtUsJ5RUCWr7KG63VG3K1WAkAfu6ccVMPJNgL6VOlHTogQB07lf4sCkBrLDLAKuN1YxniLX3/6uHdH3x3xY/BvlZ7Xz/wCzot2EAVF474sfg3ys9r5/9nRGqucW3ORpy4yq5djq/ttn737t/F+39Bi4YQBTjda4rhMvEZaZYBRSi6jjCoaT16f8n2+X5om8d8WPwb5We18/+zotdsjwp4c10kJR2FDsJ6+abb379z0HSJoAp5uucW2pzm5cZVadXYti2oDb1/8AJ5v/AFRJ474sfg3ys9r5/wDZ0W7CAKgXXOLPQrRlxlXqsbXxdPnf9HxC9WuLIyqRMZa5XrVdGoNYvqCTe46Wp9wL9d+npi5YhmyAwSXXWxqT2mxdXnDbodj0PqJgCqPHfFj8G+VntfP/ALOiN6ucW/Y5OXGVXnjVfFtQPZ7/AP5AWPr3+QxcMIAqLx3xY/BvlZ7Xz/7Oh474sfg3ys9r5/8AZ0W7CAKe8ecW/hH9zjKrk6P+1tQvqv6fAOlu63zxwl61xXB2ZKctMsUkugqK8YVAhR0J3Ten7C1httcHvvFyRBLkF6aAedXZ0ApWmwR2E7I2Fx39+5Vv3ACqfHfFj8G+VntfP/s6I2q5xbWXzsuMqvPOm2LZ8dnu/wCrzf5dvkEXDCAKi8d8WPwb5We18/8As6ODtc4teWrk5cZV67HTfF0+Rf5PF4+kRcEIApt+tcWBab5uWuWCjrQfueL6gLG43Nqf09Pqifx3xY/BvlZ7Xz/7Oi15ogIRd11v7ojdsXJ7Q2Ox2PQ+rvETQBTzlc4ttbfLy4yq06u3fFtQO1u7/k8W/riTx3xY/BvlZ7Xz/wCzot2EAVF474sfg3ys9r5/9nRGmucW3OXqy4yq5dhpti2fvfv38X7/ANA+eLhhAFOS1a4rgHNOWmWCfuiideMKgbm/UXp/T0RN474sfg3ys9r5/wDZ0WvLEEOWddc+6q/fBa2/QbDYd30xNAFPMVzi25Q5+XGVRXvfTi2fA67beLz3euJPHfFj8G+VntfP/s6LdhAFPTFc4t+UrwfLjKoObadWLagodfR4APpji/WuK4uy5VlpliohwlJRjCoWSdCt1Wp+4tcb95HfaLjiB8gOywLrqLukAIFwvsK2VsbDv7twN+4gVT474sfg3ys9r5/9nRGuucW/Nb0ZcZVcvfXfFtQJ9Vj4Bt/Qfmi4YQBUXjvix+DfKz2vn/2dDx3xY/BvlZ7Xz/7Oi3YQBTyK5xbcxzmZcZVaLjRbFs+Da29z4vN9/UI4yta4rg1ZGWmWCRrXs5jCoE31G53p/T0eq0XHEMoQWSQ665219pwWV5x26DYdB6gOvWAKnNb4srG2W+Vl+7+2+f8A2fHFmucWvKTzsuMqy5btWxbPgX+Txefpi4IQBUXjvix+DfKz2vn/ANnRG9XOLbSOTlxlUDqF74tnzt3/APV4/wD93RcMIApxytcVxmGSctMsCoarFOMKhpG34X/J9vkvE3jvix+DfKz2vn/2dFrukCZZBddSTqslI7Ktvwjba3duImgCnjXOLbni2XGVXK07/wBts/fVf0+L/R3W+eJPHfFj8G+VntfP/s6LdhAFReO+LH4N8rPa+f8A2dG+YHmsfTdGW7mPRqFTKrz1BLNGqDs4xybJ0qLjrLStROq402AA3N42GEAQyYSJRkIQ4hIbTZLpJWBboone/pvE0QyZBk2CHXXQW0kLdFlq26qFhYnv2HyRNACEIQAhCEAIQhAGNTfvfLfkk/RGTGNTfvfLfkk/RGTACEIQAhCEAIQhACEIQAhCEAIQhACEIQAhCEAV7mllxWcXVDD2KsJVeTp+IMMzLjsqZ5hTss+06jQ406lJBsRYgjcECOgquU+YuLKRTEYvxhSXp6SxZTMQBmTkeTKy8vKOhZYaNuYtSrX1LJ3O1htFwwjvo8Sr0YRhG3Z2bSbWt7J9L6+fJnPUw1Oq5Zv/AErPXfS3y+9EaVSMBzlNzYxDmGufZXLVmlyNPblwk621MKcJUT0IPMFvkjcnVaWlq1hFkk6j0T645xxXqCFFJANjYnpf1xy1a06zTnySXwSsvQ1jBQvbnqcWFa2G1h1LupAOtI2Vt1HyxJHFsqLaSspKtIuU9CfV6ow63TnqvSZumS9Um6a5MtFtM3KFIeYJ/DRqCk6h6wR6oyLmdCKk94rFPxj8zvz9O+yQ94rFPxj8zvz9O+yQBbcQpcBm1teEIJDaVcq3aTcq7XyG1v8AJMVMvIbFa3G3BxJ5ngIJuA/Tu1cf4pAZF4t56geJHMvRoFhzqdqvc3J/cnTp/XAFvwipPeKxT8Y/M78/TvskRoyGxWl1xw8SeaBC7WTz6fZNv/2kAW/CKk94rFPxj8zvz9O+yQ94rFPxj8zvz9O+yQBg8T4OJ6FhrJ9uYSwjHdcYZqbqvNbpEmfDJ4q3HZW2yGD6n4umKvwrkj7mMUN44q+ZWKsWVanyM1J09Veel1MyiXylTikpZZbNzy0Akk7Da0WhACEIQAhCEAQtuBUy834QhRQlB5YG6L33Py2/qiaI0lznLClIKAE6QPOHW9/6okgBCEIARDNuBpgrMwhjtJGtQuN1AW+fp88TRG+XA3dpSEquN19LXF/6oAkhCEAIQhACIJd0OOzKRNId5boSUJFi12EnSfSd9XyKETxG0XSt4OLbKQsBAT1CdI2V673PyEQBJCEIAQhCAIZlwNoQTMIZu4hN1C+q6gNPynp88TRG8XAlPLUhJ1pB194vuB67dIkgBCEIAQhCAIZZwOBwiYQ9pcUm6RbTY+afWImiNouEK5ikK7ZA09w7gfXEkAIQhACIX3Ah2WSZlDXMdKQlQ3d7CjpHr21fIkxNEbhcC2ghSAkrIWFdSNJ2T672+YGAJIQhACEIQAiGUcDrJWJhD/bWNaRYbKI0/KLWPrETRGyXCi7qkKVqVujpa5t89rX9d4AkhCEAIQhAELjgTMMt+EIQV6vuZG7lh3fJE0RrLnNbCVICDfUD5x9FokgBCEIAQhCAIZNwPSjDomETAW2lQdQLJcuPOHqPWJojYLhYbLqkKWUjUUeaTbcj1RJACEIQAhCEAIQhAGNTfvfLfkk/RGTGNTfvfLfkk/RGTACEIQAhCEAIQhACEIQAhCEAIQhACEIQAhFb1rPKh0fMeayxZwniep1OQk5WozkxIyjKpSVlXi4A644p1JCUls6hbV2hpCrK04mFuIOgYtnpaWkME4wYlKmy+9R6jM09pMrVeWCopZUHSUqUBdIeS3eO78sxeT2mTS1+WzV16Xfgm+TMXiKSllb12+/Nea6otOEVfw75oYgzYwErEuJMOT1Kmk1GelwX22kNvIbmnUI5ehxZOhKEoUVW7aVWuLE7FmZmbQMqaFKYgxFKVKZl5yoy1LbRT5fnu859WlHYuCoX7k3VvsDFauBr0sU8Ha9RPLZa69whXhUpe2TtG19dNEbdHFwam1p0JVdJGlXQ+o+qNKy9zXpeYFQq1E9zWIMO1ei8pc1Ta3Ktsvhp0Etup5bjiFIVpVuFXuCCBG6Oi7SxoK7pPZBsT6owr0KmHn7OqrP+dV5ovCpGos0XoGU6GW0FtDelIGhHmp26D1RziNgWYbHLU3ZAGhRuU7dCYkjIuIQhACIggiaW5yWwC2lPMHnmxPZO3QXuN+8xLEKUjwtauQsEtpHN1DSrdXZte9x1vbvG/oAmhCEAIQhAEM42XZR9oMNPFbak8p09hdx5qtjseh2MVPP52Y2n8WYgw5lzkxPYrlMNzaKfOVFNck5NszRbS4ptKHVajpC0gn0mLJxXV6dh/C1Zr9YVpkKbT5icmjq02ZbbUtZvcW7IO940Phpos7TMnKFV6w0purYpQvE1SStOlSZmeVz1II7igLSi3/cgDrZrNTiAZZLktwsT0w4CkBsYxpibgkAm5VbYXPzRN76Ge3xYKj7W0z68W7CAKi99DPb4sFR9raZ9eIHM1s/0zbTKOFWpLZWlRW97sKUNBFrDTrub79PRFyQgCnkZmZ6peccHC5PArCQVDFlL1Ktfr2+6+3yxJ76Ge3xYKj7W0z68Wu2kCZeVyFpulH3QqFl9dgL7W+Qde+JoApuXzWz/AHHH0v8ACrUmUNr0tK92FKVzU2HasF7b3Fj6In99DPb4sFR9raZ9eLdhAFQO5pZ8obWpvhdqS1hJKU+66ljUe4X17RCnNDPuakm1TfCpPocWEKWy5i6lrCFXBtcLsSD3+kRcsQzaQpggsKe7SewlQB84b3JHTr80AVR76Ge3xYKj7W0z68QTea3EAyGjK8KlSmCt1CFgYwpSdCCe0vde9uthuYuSEAVF76Ge3xYKj7W0z68PfQz2+LBUfa2mfXi3YQBTfvr8QHh3g/kqVLwfla/CPdhSvPvbRp136b36RzazMz0bceUnhbnUFxYUSnFlLus6Ui6u31sAPkAi4Ygl0hL0yRLLa1OglSlAh3sJGobmw202Nt0k23uQKp99DPb4sFR9raZ9eIJXNbP97m+E8KtSY0OqQi+MKUrmIHRey9r+g7iLkhAFRe+hnt8WCo+1tM+vEczmpn41LuOS/CzUn3UpJQ37r6WnWe4XK7CLhhAFOHM7Ph9lovcLE9quhZQvFtLVoUCD119Qeh9UTe+hnt8WCo+1tM+vFrzSQpCAZdbtnUGyVAae0O1uRsOtv6jE0AU3MZrZ/tuMJY4Vak8hxel1XuwpSeUmx7Vivffaw9MT++hnt8WCo+1tM+vFuwgCovfQz2+LBUfa2mfXiBvNbP8AVNusr4VakhhCUlt73YUs6yb3GnXcW269bxckIAp5nM3PVsLCeFueRqWpR0Yspe5J6nt9TEnvoZ7fFgqPtbTPrxa8skJDlmFtXcUbKUDq384WJ2Po/qiaAKbks1s/35dLs3wq1KWdJUC0cYUpdgFEA3C7bgA/PE/voZ7fFgqPtbTPrxbsIApuezX4gJeUcek+FSpTbyQNDIxhSka9/wCMV2Ec3czM9VrZUrhbnlltZUCrFlLug6SLp7fXcj5CYuGIH0hTssTLrc0uk6kqADfYUNR3FxvpsL7qBttcAVT76Ge3xYKj7W0z68QPZrcQCJqXaa4VKk4y5r5rvuwpQ5Vh2diu6rnbbpFyQgCovfQz2+LBUfa2mfXh76Ge3xYKj7W0z68W7CAKbZzWz/XMPtu8KtSaabKQ057sKUeaCNzYLuLHbeObGZmerTehPC3PNjUo6UYspYG5Jv5/U3ufWTFwxDKJCWSAwpntrOlSgT5x3uCdj1+Q93SAKnVmjnwEkp4XqiogbD3W0zf/AOuIpTNXP56WbdmuFepS7qk3W0cYUteg+i4XYxccIAqL30M9viwVH2tpn14gm81s/wBltKpXhVqUworSkpGMKUiySd1XK+4b274uSEAU8vMzPVTrbh4XJ5RReyjiyl6k39Hb74k99DPb4sFR9raZ9eLXcSDMsq5C12CvugUAEbd4vvf5DE0AU2c1s/xOpYHCrUjLlorL/uwpWy7gBGnXfcXN+m0T++hnt8WCo+1tM+vFuwgCovfQz2+LBUfa2mfXjesC17FmIqQ9O4ywG/hOdRMqabknaixOFxoJSQ7rZJSASVJ0nfsX6ERscIAilEFqVZbLDbJQ2lPLa8xFh5qdhsO7YRLEMmkJlGEiXWwA2kcpagVI280kEgkdOpiaAEIQgBCEIAQhCAMam/e+W/JJ+iMmMam/e+W/JJ+iMmAEIQgBCEIAQhCAEIQgBCEIAQhCAEIQgCrqVgjFEpnrjnG5kZdNLrWG6VT5B91xKkuTLC5ouJW2DrCRzUXuBcE2MV5l7lfmRScwKHU5HL5GBJaTedXX3JHEXhFKqbelQCJaS1KU3qWQu6wgpta6o9KQj1afF61NSWVaxUeeyWVaXs3bqmr6pHLPCQnu3vfl3d2m3LXvKfyOE7lhg57A+YyadQpiQqtRek33qrLlFQl35x59LqE6tSAA4AQsA3jKzakRmZIYYkcDVGm1d+j4uo9XnUS8+yotSjEwFOLPa3sB06nuvFh1XDGG666h+t0CnT7jadKFzMsh0pHoBUDYQpWGcOUFxx2iUGn09boCVqlpZDRUB3EpAvEPHxeI/rbf5b5v2387677+GhDw79k6CfYaa77P+L6etzTqDhCvSOeOKsaTMmlNIqlFp0nKv81JK3WlvFxOkHULBadyLG+0WC7blLvqtpN9PX5vXHOODpAaWSsoASe0Oo9ccNevKu05ckl8ErI6IU1C9ubufGLclvTrtpFtd9XTvv3xJEbBBYbIcU4CgdtQsVbdTGFiGSrFRok5JYfrSaRUXmimWnlSqZkS6+5RaUQF/ISIxLnYwim/e34lPjNU32Dl/tEPe34lPjNU32Dl/tEAXJEKdPha9ndXLTe99Frq6d1/T6rRTT2WPE6uZl3WeKWnNNNlRda97+WPNBTYC5mLpsbHb5I5jLriRMwpscTtP1BCVFPuCl7AEnf/AKR6j/RAF0Qim/e34lPjNU32Dl/tEQM5YcTyJuYed4p6c4w4Ecpn3v5YcogHV2hMXVfbr0tAF1wim/e34lPjNU32Dl/tEPe34lPjNU32Dl/tEAcOKXmYgwXRsp2FL/5xa7LUKdS0Cp00tIXM1DSAQTqlpd1v/wDVGxJAi5W20NIS00hKEIASlKRYADoAIpzC+TmYUji6Ux9m1nOjF8xQZCdl6WmVw21TEyapgp5j9kuuBawhCUAlPS/W5EXLACEIQAhCEAQt6fCXrc3VpRfVfR3+b3fLb1RNELagZl5IfWohKLtkDSjruNu/5T0iaAEIQgBEM1p5J1822pP71fV5w9Hd6fVeJohm1BLJKn1sjUntIAJ84bbg9enzwBNCEIAQhCAEQS+jmzOnnX5o1a76b6E+Zf8ABtbptfV33ieIJdSVOzIEwtwpdAKVAANnQk6U7C431b33Ud+4ATwhCAEIQgCGZ06Ea+b++Ity73vqFr27vT6omiGZUEpQVPrau4gXSAb9odk3B2PT/hE0AIQhACEIQBDLabOaOb++KvzL9b91+70RNEMsoKDml9btnFAlQA07+aNhsImgBCEIARC/p5svq5t+adOi9r6Fedbutfr36e+0TRC+pIdlwX1tlTpASkAhw6Fdk7bDv7t0jfuIE0IQgBCEIARDK6eT2ObbWv8Afb6r6jfr3ej1WiaIZVQUzdL63RrWNSwAfOO2wGw6D1Dv6wBNCEIAQhCAIXNPhDN+bftW0309Pwu75LxNELigJhlJfWkkKsgAWXt37d3yiJoAQhCAEIQgCGT0+CM6Obp5abc2+u1vwr739N4miGTUFSjKkvreBbSQ4sAKXt5xAA3PXoImgBCEIAQhCAEIQgDGpv3vlvySfojJjGpv3vlvySfojJgBCEIAQhCAEI1zHOPKFl/S2KlWkTj6pyaRJScpJS5fmZp9d9LbaB1NgonoAASTGuN59YCOGprEcyKtKLk6gmkuUt+nrFQM6sXRLpYFypahuLXBG97bx008FiK0FUpwbTdtFzM5VYQllk7Pf78n5MsaEV7I554EmKBXa/U11GijDQQqpydUklsTTAc/ejy9yoLOydN9R2G8Y1N4gsATUpWZmrorGHnaHJt1CZlazT1yz6pZailDraDfmAqGkW31WBAJjT8uxev+N6W5dbW+a811K/1FLTtLUsuEVpTeIDBE61VvDpCv0aapFMXWVydUpq5Z+YkkDtPMpUbOAbAgG4JFwI+4Tz/wLi+ryFJlZWuU8VaUXPU2bqVOXLS08yhIUpTS1dbJOre1xuLiJlw3GRTbpuy1endf5XfwfQhYmi7dpa/6/lea6llQij5viWpNar2DqZgmQqC5LEldTT01CfpjrcrPSobdK3JVwkBXaQmxI3BuAesXhFMTgq+DUfbxyuV9Hvo7FqdenVbUHe31/wCCEVvinPzA+E6zUKPNSlcnhRtHjacp9NcmJWm6gCOe4nZNkkKIFyBubCMGtcSeX1FqVYpwkcQ1D3Pls1SYkKWt9iUaW2lxDq1jbQUqvtv2VbWF40hwzGVEnCm3dXWnLT+V5rqRLE0oNpyWn39GWtCKroudLtczumcs5OgTrlKRQJSrMVNMuS24p5Th1FeqwbKUAJNrleobWi0yQkFSiABuSYwxGFq4VxVVWzJNeDLU6sKrag7209L/AFPsIrGl8ROXlXrEpTpVNZEhUZ5VNka05TnE0yamQop5bb52JKgUg2sSCATHcTmb+D5HCdZxo+uc8W0GquUabIYusTCJlMurSm+6eYob+jeNJcPxUJKMqbTdktObdkvG+liFXpO9pLT7+j8jdo4unS2tQWlFkk6ldB6zFcYEzXnsXZm40wHMYan5RjDTrKGJxcvpbdBQkq1K1dSVXSAN0gmLHXfQrSBextfp88ZYjD1MNJQqKzaT+DV16MmnUjVvl5Nr4rc+Mq1stqLiXLpB1pFgrbqPVGJW6q3Q6RN1h2Tm5tEo0p0sSjRdect+ChA84+qMtrVy0awkK0i4T0v6vVH1zzFfIY5pyyxcuhoiofKTpPwUZnezS/rQ8pOk/BRmd7NL+tFkHrCPhv7sxP6I+v8AJ1ewXUrY8S1IC0o96jM+6gSP7Wl93+VHEcSVO5ylHKvMzllIAT7mF3Crm5vr6Wttbujrs18wcwZTMTCuU2WTlAkatiCTnao/Uq204+yzLSxQChtltaFOOKLg/CAABMV29xLZiVBVHy0oknhhrH0/jKbwfM1F8uqpTCpaUVNrfS2FBa1LbSAlrWDqJ7W0dVP8QY2rFSjTjrru9r2v4X0KypQje72/jN8lctjyk6T8FGZ3s0v60cU8S1IUpSRlRmf2DY/2tL62v/G9cY+TeZOJMT1/GmXeOVUl7EmBpuVZm5qlJWiWmWZlnmsuBC1KU2qwWlSCo2Keu8Wl3RjU/E+KpSyuEdk+ezSa9GSqMWVv5SdJ+CjM72aX9aHlJ0n4KMzvZpf1osiEZ/3Zif0R9f5J9gupouF+ILCeL8RDBiaPiTDdYmae/UJQYgpC5Rt1prSHFJKlWVo1pJTcGxjGxDxLYLoOKKthNjDGMqzN0R5MtOu0miLmWG3SgL0cwEAqCVJJHdeNf4kZ84IksJ50obbLeBa40upFzVpFLnAZSZUrT1SjnNPHY7MdI67INifmcAJxnV0PIqONZ6ZxLMIevrbTNL1Mtm+40sBlNvUY9mjxx1cGq9lmva333WNMNg1XqODeljY1cU+GEgH3s8zDcgD+1lzqTb+NH3ypMOfBjmX7Nr+tGvZ5ZiVvLjCMlO4ZlJF6sVusyNCkFT6ymVZemXNAdeKd9CRc2BBJsLi8V/OZ45k4InMc4ExZTaLiLFuGcMM4ppy6Kw8yzNy7ji2lIcZUpa0KQtFzZR1JVcWtCHF684Oaiua8km/JNM7ZcNpRllcny9XZeb0Lh8qTDnwY5l+za/rRFMcVuFJRl2Zmstcy22mW1OrV7mXCEpSLk7K9EVVkZnbivHeOpjCNRxHg/GNPFEbqy6zhVDiZenvqc0+BTGpxwcwi6h2gqyTdIi/bAggwq8Xr0WlKK9fD6faK0+HUaqvGT9PH6nCt584AoWXtIzTNQmanQsRop5pDdNlFPzUyZtOpkJbBuSpO9trBKr9I1rysMH/B1mT7NOfWigMCzM+9juicPbjSm6blDVqrVW9OvSuVe1eK0qvcENszjrYF9uT0Fo9CR9tw7AQxtBVm2k9vA+R4hj54Os6MUnbcgHFjhFVynLjMogG38GnB/vR98rDCXwb5k+za/rROfNT8kfI7vyal+p+hxfnNX9K9SBXFjhFKSo5b5k2Av/Btz60cXOK/C62/uOXWY6Fkg3Vhlwi1xfbWO68dLmPi8YAwHXsaKkzN+JZB6cDAVp5hQm4TfuF++Kvo+ZebFFrmE6Tj+fwjNDMBh9NLVSpd5HgM0GC8hK9biue3p2Kk6Nx03jN8LoqWXM+XTney+NmaR4pWlHNlXPry38rl2+VhhL4N8yfZtf1o+K4ssJJKR72+ZV1Gw/tbc9F/43qihJbFPEhIZv4ey8qGK8BVdmYbNSrSJKhTTLkpT0nSFBaphQC1q7Kbg9Ce6PQaevzH6ImHCaNSOZSfNcuX3bxTKz4tWhLK4r1NervFwifqdGwLl1lniiYxliiZMrSGK9TlyEiAhOuYfee7RDbTQUsgC6jpSN1COvo3GFOzOPa/SJ7LeuzeGKIfFzNWo9NemzUKi2QmYU30SlhKgtAuSolN9hGvqr6KTmXmZmnNr1SuVmAHWZUFBITNTQVMvKSe5XLlpdO29lEfLsGUGG38J5ZYcok4rXONyDbs4sp0lcy4OY8o99ytauu8c1Hh8KtedNN2j8zqrcQnSoQqNK8vkbFPcYOAKTKP1Gr4GzEkpOVbLsxMPYbcDbTY6rUQdgACT6hG8Ywzjwrgek02tTpqFYRX5tuWpcrRpJU1MuqWwHQnQk79gFZO1kkfKdNqdOlavSpykzzYcl51lcu8g9FIWkpUP6CYrLhlrNYzDxxhzCtaC75IUecplRUNel2qOPLk5ZairYq8DlnXepsJlvpGePwKwiTi7pmmAxzxbakrNFw+UbS/gnzP9mXPrR8RxHU1wakZS5oEXI/gysdDb+NFuxrGY+L6lgfCkxXaNg+q4oqCVtsStLpqUl191atKbqUQlCATdS1GyRcx5jdj00rmleUXT/gkzP8AZpf1oK4jackFRykzQsP/AC0v60Z3DjmPinNbKmQxnjSlyNOrL87Pys1KSSipplTE04zoCiSVWCLFW1zvYdIs6Lyi4uzKp3K9wFnThjMeq1fD1MlKxRKxQhJvTshXKcqUf5MypYaWhKj2krLTiQodFJjX5XidwpU0uTFCwFmDV5JD7rDc7I4ecdl3y2tSFKbXqGpOpJse+NJ4psQ1bJvGdCzloEvzF16iz+BppKQsqM25+6aY5ZN7lDzcw2NuszF35W4QbwDlxhvBjalK8UUxiVWpRupTiUDWonvJVc/PFSTSzxH0sKSgZTZoEqvb+1lz60ffKLp/wSZn+zS/rRbkIAqPyi6f8EmZ/s0v60cU8R9OUtSBlJmhdNr/ANrS/rRb0aZnJmGjKjK/EeYSpAzq6LJl5mWBI57ylBDTdx0ClqSL+uIbyq5MVmaSNTa4ipRIVzcp8zVEqJTpwwsWT3Dz9z645+UXT/gkzP8AZpf1o6fBWZebuHc2MP5XZ0DDM2vGlEnKtR5yhy70uJd+ULJmJR1Lq16+w+lSXAU30KukRekWask+v0bT9U/+FU7/AH8fv+SoW+I6nOIDicpM0LKFxfDSx/vRy8oun/BJmf7NL+tFuQiCSolcRtOSLnKTNC3T+DS/rRsGBM4sL5iCpClIqVKmaDNCXqUhWJFUrNIKmS4myFG9intBW4ISoesb7HlTiYr9fyux/OvYWZPh2b2H0YWpjiAsqaraX0y7Dg03AIanS4TYdiWXvAFjU3ihwtW5Fqq0PLrMeoyEyNcvNy2G3FNPovYLQdW6Ta4PeIyDxH0vWGxlNmgVEFX8GXOgt36vWIsjCmHKfg/DFIwnSUlMlRZFiny4V15bTYQm/pNki8VbmnmRmSM3MOZKZWOYdp1TqlEnMQzlUrrLkw0iWYebZDLLLa0KW4pTtydQCUi9jeIv2lFbv6Jt+STY5OT2X1dl6tIy/KLp/wAEmZ/s0v60PKLp/wAEmZ/s0v60VzI8S+YuM5XDWB8IS+F5DG9SxPWcMVOfnOa/TZd2mJ1POMoSpK3eYlTZQjULalXPZizskc0a/jWo41wLjVFLOJ8v6s1S6jMUrWJSaQ9LomGXUJWSpslDmlSCTpUk7mLJX26X8Vpqv/pefiHpo+tvB66ej8jDHE3hGWn6dJ1/BWO6CzUqhLUtqdqlBWxKomH3EttJccuQgKWpKbna5Ed5jXOrDmAq1I4ZnKXX69VqhLvzrcvQaWqbU3Ltu6CpYSeyAohO53IMZmd+ApjM7KTFWB5CYEvUKnTnBTZgkjweeR90lXbgggoeQ2rr+DFXcLWMZzO6t4gz3n5JcmmZkafh6UlSFBMutlvnTaAFd4mH1IJHe2dzaIBtp4jqWAScp80Nv/LLn1o+J4jactIWnKTNCyhcf2tLH+9Fg44xMjBeDa5i52VVMootOmJ8spNi4GmyvSPltaKIwrnfm9RZzLWs5oO4NnaFmrMpkadL0Rt5uZp0w7LLmGEqWtakzCClsoUoBGlRTsQYhO7a8PW9l8bMPRX8fJat/C5u/lF0/wCCTM/2aX9aPh4jacm2rKXNAAm38Gl/WipcGcU2ZFbx3QqbOzuCppyt4jmKLOYHkm3hiGiS6FLHhUwVOHspCEqUS0hNljSo9/reJSvFT6/6f1D0k481/tfQr3C+d2CcWYXreMpaZnKXJYWdnGa1K1STVLzcouXZS84Ftk3TZtSV33BSoWjXpDiboNTkZepSGV2Zz0tNtIfZcGGHAFtqAKVbqvuCDFTcQEvUqfmrW8n6e04iSz+Zpkm86yVhbaWVcipkEbJK6ekJvt5oj10hCGkJbbQlCEAJSlIsAB0AEAVJ5R9MKy2nKbNAkC5/tZcH+9H3yi6f8EmZ/s0v60ddjfMPNqs5wzeU+VM1hWkmh0Nmt1Gdrsu7MqmOc4tDbTLTbiNIHLOpwk2uNjGvM5tZwZh5TyebGBcXYFwpT6WxPN4iTWaXMVBCZiUdWh1bLjb7Vm/uaiLgk3EVzJRzvb6K6v4XVibdrLz+rV7eTubl5RdP+CTM/wBml/WjfMEYxZxxR11ligVyjpQ+pgy9YkjKvkgJOoIJPZOrY+o+iNP4cMR5r4wytkMV5wJoyKvVnHJqVRS5J2VQmRVbkcxtxxwhwp7R7W2oDui0IvKLi7MpGSkrohlFlyVZcL7bxU2klxsWQvbzgLnY9epiaI5fmBhvmhAXoGoI80G29vVEkQWEIQgBCEIAQhCAMam/e+W/JJ+iMmMam/e+W/JJ+iMmAEIQgBCEIArjPTDUzijCkrJs4EOKkMT7Uw5KsVIyM6xpvZ+VeCk6XUEgi6kgi+/dFI1fJrN/FGFJSYrcjiCryWHMTs1Wl0Ct4gHjV+RDC2n21TzCxZy7hUglw9LFVjHrWEevguM18BTVOnFaO93f421sr7XSTtzOWvg4YiV5t7W+fx57bX5HmD3kKrV8JYqmsM5WPYTqb8xSpiRZq+InqhM1HwKZD/KfUt51ttBIKU2UT2iTGzY2p2dOb2HqzJP4Jl8NSEm3IzVOp1RmWnpmen2JlL6tS2lKQhopQEC+5KiTYCxvmEXfHK0pKcopuLUot5m07RXOTvpFb3tysUWBhFZU7JqztZXV2+SXV7W7zznjjC2aGb1QmsQTuXcxhpNFwrV6ZJSs1Py7r9QnJ1pCdKeWsoS2nl7FSgST0EdvifK7FeIJPK2lJpy2W6RS5qRqzwdb/cZdp5ZBtq7Vlm3Zv/RF6wiv5zVjGMKcYxjG6SV9LqSe7b/9N68+7QusJHNmcm38P2937V6nmmiYfziVLZTYAqeVZlZTAVRlUVGsoqEuqXdZl5ZbKHWEBXMsrskhSQRe1jHpW49McXmWphlcvMNJcadSULQsXSpJFiCO8ERonvAZGfA7gz9By31IpicbT4g711ktf3Ve7bu2809NemhFLDvDJKlrolq7WS2tZa78zSUSObuXNdxtIYNwEK77qqmanSqsqdZRLyjjjaEKE0hag4UoKb9gKuNtoSeXuOk0/OhE/Sg5NYqCPFqm3G0pnFinoaUUjV2BzAQAu39G8XbIyMnTJNinU6VZlZWWbSyyyygIQ2hIslKUjYAAAACJ4l8Wmk1GEbtJN2d2ouLV9bL3Vtpqy0cOsyk29G5W5Xd78v3Mo3LnB+N8I5m0ap1DCkw5TZ3AlMok1NtzDJTIzcs48tSHElepQIcSAUBQvF01GUFQp8zIFwoEyytnUOqdSSL/ANcQV3D9CxRTHaLiSjSVVp79ubKzjCXml2NxdCgQbHeNYkcjsmaXOsVGm5UYRlZqWcS6y+zRpdC21pNwpKgi4IO4IjPEYqnjpe1rtxktOzG6fnJeG3LqKVKeFsqWq03fRJdO4pyn4EzYncvcIZE1LAAkpbDVRp5mcRpn2DKPSkk+lxLjTYPN5riUJBBSAFFRuYxsX4LzkVhHG2V9Iy4XPM1rFzldlqumoS6WFybk+3MlAQpYXzRpIsQE7E36A+o4R2R4/WjUVT2cfez27Vs9083vdUtNu4x/L4ZMik1okttElJJbfueu/eVngqi4noWcGOpmew6+KPiDwSdk6ol5otam2ktqZUjVzAq9yDp02HWLJdSFNLSUBd0kaT0V6o5xwdF2ljSpV0nZJsT6hHkYiu8RJSkrNJLT9qSXojrp01Tvbm2/PU+MJCGG0BpLQSgDQnonboPUI5OeYr5DHFgWYbAQpFkDsrN1DboTvc/PGJXfHRo84MOiTNTLShK+GauRzO7Xp7Wn5N45aicoNI1RjHrCKx8B4rf8LlZ+ZqH14eAcVv8AhcrPzNQ+vH51/bnEP0rzR1+2gdBxIYGqOLpjC86vKhjH1Gpb77k3JSk74BV5V1SAGn5Sa5rWgXCkuJ1p1JI62tFWMcPGJqRlStp/JqhVaXrGMfdDU8GomUtzMnI8otsiSmw4gNzjZDay4FjVdwau1c3euS4sg4hKDlSpBvrUW6gCnbaw177+sQEpxXF4tf8ANcAEhWvkz+kkk7fvl7i3o7xHXS4PxOjBU4wXn33623S137yJVISd396NfJvu5mucMeUs7gCaxpi6dwY3hAYtnZUylD8KEy9Kyss0UIU+8FK5jziluLUrWo9oXUYvTuisfAOK3/C5Wfmah9eI0SXFmXXErOVKWxbQoIqBKvTca9v6TGVbgXEq83OUVfRbrkkub6IiM4RVl93LShFY+AcVv+Fys/M1D68PAOK3/C5Wfmah9eMf7c4h+leaLe2gdRxYeGV3KpeVNHUyarmbPMYSl0r0kpYmCTOOgEHdEoiYUDbZQSdoiyLrs5Xcq6AaqgN1Wly5o9TbAtonJRRl3u4bFbZUPUoR2tEy7zhrmPKRjbNqawo5KYbkKg3I0/DyJlLjkzMpQjmFx5dgQ2lSRa1i4d46t7KHOzCuLcUzmW1bwaqg4hqiqu1K1hiaU7KvOISHUpLSwnSpSSrpe6jHuYfglWlglBr/ACZm3ry2NsJi40arctmiLPbDNXxdlrUKHR8K0rEq3XZdb9IqWzc7LpdSp1tC7jlu6QShdxpWEnbrHnxjhqxPXafjzEOHsADBHjWiSdEpdCnqp4TNT7bUz4RMqnJlLjhPOAQyLrVZCBew2j0avCnFWhOpqcytWq42LFQTtfffWe6OXuT4pv5Zlf8AmJ/68XpcPxtFNRivP4fLrfdnbUxmFqtZn6d9/Fa9LbFZ5b4IxHPZvUnH0vk8zlnS6RQX6TPsB6V5lWWtSCygplVKSW2dCylSzq7dgBvHoEdDGle5Pim/lmV/5if+vEb+EuK5aS2xP5Wt60qHNLE+ShVtiE69/wCmK1OGYuq1eK07+9vm+rJp43DU07Sevd0SXyRS+BqzVpviJxBmA+GVYbxw7OYdor7VilxyjLDbitSRZWtxU1Y3N0tj0Rf0dLUuHCtSOTWXuAsGVuWYxLlyqmzEtVJ5C1S0882ytqb5iEK1APBx1SrWOpSTc2iH3u+KH8a5Y/8A9af/AFkfonCsZRweGjQm/d2PhuKYKti8Q61Nb7mwnzU/JHyNdTl9xTHUHJ/LABJskhmfNx6T29o++95xQ/jLLH8xP/Xj0fzTDdfRnnPheJ6eqMvFklUalhirU+kNyTk7MybzUuiea5kutxSCEpdT+EgnYj0XjzpllkjODMDCdcGTKcBy+FA9MTrztUE54XMqbKEsyaea4WZYFSl6ewPN7O0X+rL3ikCSUVDLAqtsCzPgE/8A844KwFxTpZDq5rLJTh06m22Z42JIvYlYuB9AjJ4/COoqjeq7um3K5rHAYuMHBRWvf1+Nv45Gr5W4RxBI45zFxziunKlpyu1pMrTStxCyaVLMoQwU6SdIUsur0mxurcCLOSQLknYA/RGu+95xQ/jLLH8xP/XjTszaRxgYbpcpI4Xw/grEFUrcwKcz4vlZwNyQXsqafdWvQ222Dq3uVWsASbRaHEsLCCgpPRW237/F7vvKS4bipycmt+9femy7jTZ+barmTc9KM6lTGdmabNMYCWSS7S5J9K5hxI07p8Gp8x2+g1A37x6EipJHJvN+oYjwhScv6JTqVhnKCju0OmzOK5d9tVYqT6UImqg020vVp0oUlK1+dz3SNjc7173nFD+MssfzE/8AXjkwONo0VKVR9qTudmOwVas4xprSKtubAtxtplbrq0oQjtKUo2CQAbknuEVVwf1StSeZuKa/W220U7OdhzFtCKAAAiRfVJBOwAuuT8Ad67nWe+Nlr2U3FHiGj1DDztdy2k5epSjsq5NMy88p1oLSUlSEldrgKJBJ6gRumK8nsSsyOB5rK6dp1NreAH0tSyqolxcpOSqpNLDrZS2rUlJGk2Fu03e3eceJY2GJUY03pubcNwU8NKU6i12Llj4YqT/4sP8ACZVfmKh+sji2ri0IPMGVCSFECzdRNxfY+f8A1R5J6xm8NuD8R4GyvRQMVUxUhPis1eaLKnELPKen3nW1XQSO0haTa9xfexi0YqO/Fh6cqvzVQ+vHxauLIIJR71JVbYFqoAE/LriZPM7jdt9W356mg8a9Sr9ZkcKZb4LQy/WUzT2Npps6VLRT6OEvEgWJBXMOSqAdrgrHpj0RhivSWKcOUvEtOWFS1UlGpxoj+K4gKH0xWuBsuMfLx3XsyM3n6BPVGp0in4fkpOhNvIYlJVp6YeeKi8rUouLfRq7tLKRYx0mCcDcSuWuGpXA2Ga1l9UaNSC6xTX6oxO+FeC8xRaQ4W1hJUhBSm4G+mIBfEIqFZ4tApIR71Ckk9olqoggert7xyvxYenKr81UPrwBbkV/n7gCp5oZPYpwLRJhtipVKTBkVuGyBMtrS61qPcCttIJ9Bjo78WHpyq/NVD68cEr4ti6tKkZUBsAaVBFRJJ77jXt/TESWZNExeVpmtYUoOaeZ2d+D8zcwMuXsFU/L+hVKSZZmqhLzLtQqE9yEOLb5ClBLKG2FWKyFErHZFo9CRUDbvFk4FFTeVrelRSNTU/uB3iznQxzvxYenKr81UPrxZvRJLa/q2/myqVvv4FuQioGV8WymwX0ZUIXvdKUVFQG+2+sd3qjnfiw9OVX5qofXiCS3I8pcX1dxBMY4wa5hVlqZTlMpOZVbbSEqdMs08ljkjYkFcsuoEDa5Qg90Wc6ri0S2ospyoWsDspU3UUgn5dZjlgzK3Fjk/i+v5rvUeo1TGKWpFbdHbdblZWTblXGggh1RUoErWT17SxttcAWxKTUvPSrM7KPJdYmG0utOJOy0KFwR6iCIoniWwBVMXV3CdWdycl8xKHS0TgmJWTnhT6xJTKwjlPS81zmrMqCVpdb1jVdBsbWibBmFOKbAuFKVgyRreXFTlKJKtyEtNz0vPeEPMtjS2XdLgSV6AkEjYkR26lcWgcSE+9QpBB1K5VRBB2tYa9++KuN7dxKdrlMyvDniPDGT1IpdRybo2JG53F07ies4XkJsSszTEPgpYRT5oONBtxlKGkqUFp1DXvvvaHC1lFUcuJfGOJqphGVwm5jGrNTcrh+XfS+adJsMJZaS66kkOPrIcdcVqVdThupRuT3F+LD05Vfmqh9eF+LD05Vfmqh9eLp2btzVvgrJekVq7vfXUq4p2+L822/VvayN9x9jSjZc4Hr+PsQvJapuHabMVOaUVBN22WysgE9502A7yQIozgoRizDGFa/lxmEw1L4klJ5OJJhtpASgCqIE0tKQAAEofU+iw6AAR3eKcCcRWZklL4Qx7O5dyuGXqpTpqqCmMzqpmZlZeaamHGE8xelIc5Wgk37KlR3OL8vsy2MyGMzMqJ+gykzMUlyj1SRryH3Gn0pmC4y8ksrBChqcAubaVgWFrRBJaFdlpycok/KU4SxmnpZ1tkTLetkrKSE60/hJva47xHjrA3DdX6pjDBq05FyeW68JzbtVq1bRVEzbc1NpZcbaYpjPNcMtLKdd5y0gND7mgaSRcXufKwsbOZUk933Co/rI4tq4syhJcGVKVEbgN1AgH5dcRlWbN96bfe21yW7xy/ev38ORR2Gsksw26LgvLcZHylDruFcRM1SbzBROSpTMpQ8VvvtqSrwpTswi6FpWkDtG5IAj2fFR34sPTlV+aqH144uK4tAkcoZUKNx1bqI27/wAOLXdrd9/RL6IrZXv8PVv6lY8QOLKpL8RWCcQ07kLoeVy5WZxG4NJUymrumTRcgEpCE/dSLjsi/SPVkUfJZF13EWCcyqLmfUJCZrmZypkTc1R0ONS0g14C1Ky6Ww4oqJRyuYCb9tSjtGVSJPi4p9KkpCcqmV09MS0u2y7NOS0+lb60pAU4oBywKiCSBtvEEms8Q+XVTxLj6mYinMiGcxaWxSnJWUcptTFNqUlNldyh50vtc6UWm2pu6gCDdCrx07uQWOKPw0YayVp9Jl1vVvEko7idmQcbbl5GmuzhmZtDdym7aUANWSLkK2FosbVxaBzT/wA1Bb031cqog39Ftf8AXeOV+LD05Vfmqh9eIisqt3p+TzW8Hs+dtBLtO/O1vDS114brv1LZZZal2W5dhtLbTSQhCEiwSkCwA+aOcVHfiw9OVX5qofXje8EHHxo6/fH8Q+NeerR4lDwY5Nk6bh0lWq+q+9rWidwlbRHdybYZlGWhLolwhtKQ0i2luw80W7h0iaIZNITKMJDTjQDaRocVqWnboo3NyO83PyxNACEIQAhCEAIQhAGNTfvfLfkk/RGTGNTfvdLfkk/RGTACEIQAhCEAIQhACEIQAhCEAIQhACEIQAhCEAIQhACODtuUu5UBpNykXI+T1xzjg6bNrJXosk9r+L64A+MEFhspUsjQLFYIUdu+/fEkRsEKZbUHeYCkHXa2rbr88SQAhCEAIhSU+FrGt3Vy0kpIOgC6twel/Tv6ImiFKh4WtHhFyG0nlWHZ3V2r9d7W+aAJoQhACEIQBBOlKZN9S1uoSGlEqaBKwLHdIAJJ9Fhe8TxDOLDcm+tUx4OEtqJesDy9vOsdtusTQAhCEAIQhAELZT4S8At0qARcKB0Dr5ptY+u3qiaIW1AzLqPCNRCUkt2HY67/AD/7ImgBCEIARDNlIZJWt1I1J3bBKvOHo7vT6rxNEM0oIZKjMckakjXYH8Ibb+np88ATQhCAEIQgBEEuUF2ZCVuqIdAUFpICToTsi43FrHa4uVd9wJ4gYWFOzIEzzdLoBTYDldhJ07deurf+NAE8IQgBCEIAhmSkIRqW6n7oi3LBJJ1DY2HT0+qJohmVBCUEzHJu4gXsDquR2d/T0+eJoAQhCAEIQgCGWKSHNK3VfdFX5gIsb9Bfu9ETRDLKCg5aY5tnFC9gNO/m7eiJoAQhCAEQvlIdlwpboJdISEAkKOhWyrDYWud7C4HfYRNEL6gl2XBmOXqcICbD7r2FHT6umrb+LAE0IQgBCEIARDKlJZuhbqhrXu4CFX1G43A29HqtE0QyqgtrUJjndtY12A6KO23o6fNAE0IQgBCEIAhcKRMMgrdBOqwSDpO34R6D1XiaIXFATDKTMaCrVZuw7e3+yJoAQhCAEIQgCGTKTKMFC3VJLabKdBCyLdVA2IPpvE0QyiguVZWJjnhTaSHbAczbzttt+sTQAhCEAIQhACEIQBjU373S35JP0RkxjU373S35JP0RkwAhCEAIQhACEIQAhCEAIQhACEIQAhCEAIQhACEIQAji4SG1FKkpISbFXQes+qOUcXAShQSkKJBsD0PqMAfGSpTLZUtCyUglSBZJNuo67Rzjg0FBpAUhKCEi6Um4Bt0HqjnACEIQAiIKX4UtJdaKQ2khAHbBudyb9DtbbuO/oliMJX4QpXKQElCQF37RNzsRboNu/vMASQhCAEIQgCGbUtEo8pt5ppaW1FLjouhBtsVC4uB37jbvETRFMpWqWdS2026soUEocNkqNtgTY2B79jEsAIQhACEIQBEhSzMOpLrRSAmyEjtp631G/f3bDoesSxGgLD7ii0gJITZYPaV1vfbu7vliSAEIQgBEUypaWSUOtNnUntOC6fOG3UbnoPWREsRTCVqashpDhunsrNh1G/Q9OvywBLCEIAQhCAEQsKWp2YCnmlhLgCUoFigaEmytzc3JPdsU7d5miJlKw4+VMtoCnAUqSblY0p3Vtsb3HfsB8gAlhCEAIQhAEUwpaUoKHWmyXEAlwXBFxcDcbnoPX3GJYjfStSU6GkLIWkkLNrC+5G3UdREkAIQhACEIQBFLqWoL1utOWcUByxawv0O53Hf9ESxGyFgL1tIRdaiNBvcX6nbqYkgBCEIARC8paXGAl1pAU4QoLFysaFbJ3Fjex79gdu8TRE6lZcZKWkLAWSoqNigaVbp23N7Du2J+QgSwhCAEIQgBEUspamrrdacOtY1NiybajYdTuBsfWD06RLEbCVpbstpDZ1KOlBuLajY9Buep9ZMASQhCAEIQgCJxSw+0kOtJSdV0qHaVt+Cb7W79jEsRrCy82Q0hSRquontJ+TbviSAEIQgBCEIAilVLVKsqcdadUW0lS2hZCjbqkXNge7cxLEcslaZdpLjSG1BABQg3Sk26A2G3zRJACEIQAhCEAIQhAGNTfvdLfkk/RGTGNTfvdLfkk/RGTACEIQAhCEAIQhACEdJTMX0mrYorWEZUP+H0FEs5N6kWRZ9JUjSb77JN9hHdxacJU3aSton8GrrzRCaewhCPnTeKkn2EdLg7F1Fx3huSxZh15x2nVBK1y7i0FBWlK1IvY7i5SfmjuovOEqUnCas1o10aITUldCEIRQkQhHR4pxjSMIClmrB8+N6gzTJflICvuzl9OrcWTsbmLwhKrJQgrtkSkoJylsjvIQhFCRHB0BTS0lGsFJGn+N6o6qk4so1brdYw/T3lrnKE401OpKCAhTiNaQD39kiO1d3aWCFHsnZJsr5vXFpwlB2krbPz1XoQpKWx8YSEMNpDQaAQAED8Hbp80SRGwAGGwAsdgbOG6ht3n0xJFSRCEIARClCRNrc8HAJbSnm3F1AFXZ+a9/8AKiaIUgeFrOl6/LTuVHl9VbAX870m3S0ATQhCAEIQgCCdbS7JvtLlhMJW0pJZNrOAg9nfbfp88TxBOgGTfBS8oFpV0sKKXDsdkkEEK9BuN4ngBCEIAQhCAIW0JEy8sS4SVJQC5t27X2+b/bE0QtgeEvHS8CUo3UolB6+aL7H07eiJoAQhCAEQzSEuMlKpcPjUk6DbuUDff0dfmiaIZsAskFLyu0nZpRCvOHeCNvT6rwBNCEIA1LMvNDCuVFCl65il6YUZ+dYplOkpRrnTdQnHlWbl2GxutZsTbuCVE2AJjFwfm3h7HOLKxhGgSNRdfw82hNWmyyPBZSbUlCvAy4DZT6UrupKbhNtzciKyzHn5GpcQzOJKvMt+Jsl8Gz2I1hV7N1OeStpC1C1jolWZj1jnxt/DBhKawnkrh81VNqtXkOYhqiibkzc6szDm9r7cwJ36abQBasdHXMT4VwXKTNZxbW6Th6RXMJSqcqM61LNOrKEgErWQL7aQCb9mO8ik8dSUnj/iBwpgCcp3hdNw1IzOLaq1NjmMrW4gSkmkJJIKSrwhViLamFHqbkDbvKByF+G3APtLJfrI4jiEyDVfTnhl+bGxtiWS2P5yO/8Ae6y+/wCwuHv0Yx9WODWWuXLAKWcAYbbClFZCaUwLqJuTsnqTuTAHSeUFkJ8N+APaWS/WQPEHkGASc78AADqTiWS/WR33vd5f/wDYXD36MY+rHFeXGXjiFNuYDw6pKhZSVUtggj0EaYAYexxgXHss5MYKxVQsTsyjzQeXS6izNpYUTdJUW1KCTtcA7m20bHFEzVJpmU/ElQl0amM03D2ZdENHdl5GXQw03V6atUxKnsaQOZLPzoUO8S6dja0XtACEIQAhCEAQyyEoDmmXDN3FKIFu0SfO+eJohlgAHLJeT90V++qJvv1G57PoETQAhCEAIhfQlbsuoywdKHSoKNvuR0KGr+vT/lRNEL4BdlyUvGzpsW1EJHYVuvfdPq33KT3XAE0IQgBCEIARDKoS2zpTLhga1nQLd6idW3p6/PE0QyoAZsEvJ7a9nVEq8495J29Hqt06QBNCEIAQhCAIXEJVMMrMuFlOqzm33O4/2xNELgHhDJ0vEjVulRCBt+EL7+rYxNACEIQAhCEAQyaEtyjLaZcS4S2kBoWs2APN29HSJohkwBKMAJeSA2mweUVODbookm59O53iaAEIQgBCEIAQhCAMam/e6W/JJ+iMmMam/e6W/JJ+iMmAPJGf9Iw1MZhYpxJO1bCdefpVPlVTFJrc+9TqjSUJQVB2nPebqWd7pSRr2Ku6NaxG0zmVmHiRzHeI8OUWVkKDS52hS2MecXZeScltTkxLFLrY5odCg4tIK9SUC4uBHsSr4OwjiCdl6lXsLUipTcpbweYm5Fp5xmxuNClJJTvvtHKtYSwriVcu7iLDNJqq5Q6pdU7JNvlk+lBWDp6DpH1OG/EMKFKEMrvGOW91ePu+6rW1y22Ts2m3u/NrYB1ZykmrN3t17n92vZ2Wx5nbkcKYixRgLDueGKJTEGFRgTwunTdU5slJ1KoJfs48tDxSeYJflqAX2gFKUIxqInKHGWKMMUPF8xOvZcN4bm3MNM4pmtDM0+3OuIcc1KVZwJaCS0VG4aKSI9S1rDWHMRyiKfiHD9Nqkq0oLQxOyjb7aVDoQlYIBjjV8LYYxBINUuvYcpdSkmLFqWm5Nt5pFhYaUKBAsPQIzXHYNLSS32aSjfN2opJJS7Wu2zta6yx/QNaXXLk76ZdL3ejy9+/dr5Gw7RqXjmby1wzVHZmr4NONcSylF50w4tM3R2mFlhHMJ1OM3SUi5IUlIG4hVafRMPVGp5cTri6XlhKZlSslVJZD625WXlHZDmoYWq/Yl1zRbChcJ7VjYGPYHiWj6pJfimT1UwESR5CLywKdJ5e3Y7O3ZtttHB3D1Afan5d+h09xqqG88hcsgpmjYC7oI7ewA7V9hF1+Iu3fK8tnpfnnzZ9rZrO17b67aEflzcWr668tk4tWXcm9uiKT4fpPANNzXzQpmW83LO0aU8UtIblX+axLrDTmpts3ICQfwQbCLLzim6/IZV4rncLF4VZmkzC5Qsg8wOBBsU23uO6JZ3AbchIJlMun6fg5wrSXnafSJc81tKSEoKSm1gTcHu+eOFDwxj2QqbM1WczHqrJovzJRVJlmQ5tt20DULHfaPPxGIp4nELF51oo6Su3LKktWo27VuvPU6aMJUI+zy83tZJXb6vl4fwecqpT8gKFgRT2Xb638S1zBVTemnKVO84TDYltTj1RGsknWSEqUNWskDpt2dEy3wZhWvZPvUaiobdxfSZiSxAtbi3DVWlyIWoTGonmdrcX6dBYbR6Pk8FYNp3h/i/CVGlvGgKZ7kyDSPCgb3Dtk9vqfOv1jONGo5XJuGlSeqnC0mrkJvLDTps3t2NttrbbR2VOPNxcIubTzXvK7d4ySXhFtW8L6cueOAsle2nRd8dfHs+vnT3BxS8MUzITD4w5KyDDr/OXUBK6bmZDq0nmW6LCUpG++wjH4vzQvcLhUYnqKpCkKxvREz0yl4tFpgvELVrFigBN7qBFhvFhVLAdTl5lbmAcRSuEmJhSnptmSo0qsTLxO7qypNyo+mNZxbk3i3GspSJHE2ZPjOXpdfptb5T9IZQlaZV3Wpr7np88dm5uB6DEU8XRq8UXEqlSyc8zXacld3tfK1py128i1SlOOEnhqcP8AzJK1rappc/tlBZnUzCVKw/mzhjKx2XGCU0mhuPs06ZLkoxUl1BAUGlJJSlamtKlhJvfSTuY73N/AdFpWaGDcspb3MYfwO9QZ6elZSutuGlzlW57fM1hLiAt8NHUnWT5yyBfePUUtg/CUlR14ek8LUhilOK1rkWpFpMupVwq5bCdJNwDe3UAxPW8PUDEsl4txHQ6fVZQKC/B52WQ+3qHQ6Vgi4v1jWH4i9nOFlJpOV23q24RgpPk5KzevJ2vzKS4dmjJNpXttsrO7S7ns/F+BXPDVKiRy4XIy+NJTE8jL1WcakpqTYfbl2WQsDwdpTxUpxDataUrCim1gCbRyz683An88ad/vxtNbwpiNzwSWwZjBOGJCVZDIk5alS7rex2I1jsi1hYbbQoWEq+zMFzGWLEYmabKXZZqYpUu0Jd5J2cSUJvqAuAe68ee8TCWKePcle98uub0io35m/spKi8Mlumr8tV3u+n/DxpnLiHCE5S8V5kYdotDla3TsUOMsVir4hWqviZYmkoKJaWSkFlmySEtlVuXuRuI2nOVnDFGx1i/MN+pYfxK7SanKuPS66i/TsR0hbaW9LEgVAhxKjuEpTpXrULqJj1fNYBwLPT01U53BdBmJyeRy5qYdpzK3X07dlaim6hsNiT0iabwdhGfq7GIJ7C1ImKpK25E87ItLmGrdNLhTqTbusY9an+I6NP2aUJWimve3Tydm+6XYezW+1rp89Th86jqNtdq3Lvl5+9zvt3q1RZPYfwZI575o1SSpFPk63MOyTl9CUTRYdYQty487SXACe7UIvJ0gNLJUpICSbpFyNu4RiJoVERWFYhTRpEVRbPg6p4S6PCC1cHQXLatNwDa9tozHTpbWrWEWSTqP4Prj53HYr+sqRqa6RitXf3Ulp3aXO6hR9ipLq2/PU4sEKYbUFqWCgEKULKO3UjuMSRwYVqZbVzQ5dIOsdFbdfnjCxBVl0GizlYbpFQqq5Roupkqe2lyZfI/AbSpSUlR9agPXHGbnYQimvKJr3xZM5P0ZTft0PKJr3xZM5P0ZTft0AXLEKVJ8MWjmuFQbSdBSdAF1bg26nvF+4bb7027xJVxp9hg8L2dSi+VAKRSKcUosL9o+HWT6BfqYDiMrvhS2/JsziNm0nleK6ZdO57X/AE69ja3zQBdUIpryia98WTOT9GU37dELXEnXHZl+VHC9nWksBJK1UinBCtQJ7KjPWVa29ukAXXCKa8omvfFkzk/RlN+3Q8omvfFkzk/RlN+3QBb08pKJKYWt1xpKWlkraSVLSLHdIAJJHcLH5Inij/KVrcxS3J1PDPnRJJLS1a5ikU5BatftKSqe2AtffujL8omvfFkzk/RlN+3QBcsIpWb4kq5KMKfVwvZ1OBJA0tUinLUbm3QT1+/+iJfKJr3xZM5P0ZTft0AXLCKa8omvfFkzk/RlN+3REviSriJluVPC9nUS4lSgsUinFCbdxV4dYHfYd8AXI2pJmnkB1wlKUXSUkJT16G29+/c9B0iaKVRxGV0zDqPJsziVpCfuYpdMui99z+7u/wD2RL5RNe+LJnJ+jKb9ugC5YRSrHElXH3Hm08L2dSOSvQSukU5IVte6SZ7cb9REvlE174smcn6Mpv26ALliGbUlDBUp1xsakjU2kqV5w2sAdj0PqvFPOcRldbbU4eGLOZQSCqyaVTiTb0AT25iBXEjXHZJEyOGjOaVDgQoF6k01Kk3I7JBntib2t6TAF3QimvKJr3xZM5P0ZTft0apmPxlpy6oKahWuHfNuVmag8mn0xp6nU8eEzrnZZaATOKUbrKR2UqIv0MAadjV9OJsJZozku1eczWx7T8upJdjqXJpdalXz03QlkTqzbuQqPXktLMScs1KSrSWmWEJbbQkWCUpFgB6gBHiihVGdwxi7K3AsvgXE+P8A3qpWdr+LXMMSktMtjFc80tAS4p15tBW2mZnlnSpRBW1sO69/KJr3xZM5P0ZTft0AXLFKcPITizFGaGcqkrKMUYlNJpSltlP/ACVS2kyrRTcXKVzAnXgehDyfRHXYo4hceztEqVJwpwxZvIrU1IvokH5qQpzUs1MFOltTjnhp0gKUFGwJsDYRZuUuEm8A5e0PBLcyl00SRl5RwAC6HAygr1W6kqKl3/78AbfCEIAQhCAKk4nEPyGXDGOZIEzeCKzI4jZAbK9SWHQHk7dAplbqSegBN4tSRnJeoyUvUJNwOMTTSHmljopCgCD/AEGMTENNlKzRpujT7iEy1QbVKPBYBC0ODSUWPpBt88URlzmlmFlvgqlZf4m4eMy6xP4cZNMVUaNLyDsnONsqKG3mlPTbbllICFWUgEEkb2uQPRMIpZziOxA0422vhczoPMJAUmmUxQTtfe0+bRJ5RNe+LJnJ+jKb9ugC5YRTXlE174smcn6Mpv26IkcSVcXMuyo4Xs6gWkpUVqpFOCFXvslXh1iRbe3SALkllJUHNLri7OqB1pKbG/QbC4HcYmilZfiMrqwv/wCGvOJ2zihdNLpvZ383ae6iJfKJr3xZM5P0ZTft0AXLCKVlOJKuTbCZhPC9nU2FFQ0u0inIULEjcGeuOlx6rRL5RNe+LJnJ+jKb9ugC5YgfUlLssC64gqdIAQkkLOhRso2Nhte+24AvvY03OcSdckpZcyrhezrdCLdhmkU5azvbZInrmPr/ABGV1LsunybM4m9bhGk0umXd7CjpH7u67atv4pgC6oRTXlE174smcn6Mpv26IXeJKuNTLMseF7OpRf1WWmkU4oTpF+0rw6yb91+sAXXCKa8omvfFkzk/RlN+3Q8omvfFkzk/RlN+3QBcsQyikrZKkuuODWsanElJ2UdrEDYdB6QAd+sU21xJVx595gcL2dSSwQCpdIpyUquL9kme7XrtCW4jK6trV5NmcT3bWNaaXTLbKIttPd3T5oAuqEUyriKrqUlR4Y85TYX2pdNJ/wBOjhK8SNcmpdEwnhfzpbDguEu0mnIWPlBnriALphFNeUTXviyZyfoym/boimeJKuSqErVwvZ1OalpRZqkU5ZFza5Anth6T3QBcjqkiZZSXXElWqyUpJSrbvNtrd24iaKVc4jK6JhlHk15xI1avuZpdNuvbu/d3dEvlE174smcn6Mpv26ALlhFKniSrgm0yfkvZ1XU2XNfiincsAECxV4da+/SJfKJr3xZM5P0ZTft0AXLCKa8omvfFkzk/RlN+3RYGAcZTWOaM7V5zA2JcKramVS/gVfYZamFgJSrmJDLriSg6rA6r3SrbpcDv5JSVybC0OuOJU2khbiSlahbqoEAg+kWETRDKL5kqy4JhL+ptJ5qbWc284W236xNACEIQAhCEAIQhAGNTfvdLfkk/RGTGNTfvdLfkk/RGTACEIQAhCEAIQhACEIQAhCEAIR08jiuiVHEtTwlKzK1VOkMsTE20W1AIQ9q5ZCiLG+hXQ7WjuItKEoO0lbn56ohNPYQhHwkJBUo2AFzFST7COsw7iOj4rpLVcoM2JmSfUtLboSQFFKilXX1pMRYixXRMKinmtTK2fGk81TpbS2pet9y+lJsNgbHc7Rp7Gpn9lleba3O5Vzio529DuIQhGZYRxcvy1aSkGxsVdPnjrabiWi1arVSh0+dS9OUZbbc62AfuSlp1pBPQ3TvHZOAltQCAslJ7JNgfVFpRlB2krf71RCaex8a1cpGsoKtIuUeaTbu9Uc44MgpZQktpbISAUJNwnboDHOKkiEIQAiIFfhKgVN6NCbADt3udz6ulvniWIglXhS18hABbSObq7RNz2SLdB1695gCWEIQAhCEARTRWJZ4tqaSvlq0qdF0A22Kum3p3iWIZtKlyryEMIfUptQDS1aUuG3mk2Ngel7GJoAQhCAEIQgCJBXz3AVNlNk2AHaHW9/8AZ88SxEhKhMOqLCEghNnArtL67EW2t8vfEsAIQhACIpgrDR5am0q1J3cF09Rf5/R67RLEUylS2ilLCHjqSdC1WHUb3senX5oAljHmafITj0vMTcjLvuyqy4wtxpKlNKItqQSLpNu8RkQgDW8U4nwPlZhyexTiObkaJS2nOZMPBrTzHlmwASganHFqIAABUokAXMRUTM3BWI8VP4KotXVM1iUp7VTmpdMu6PBmXCNAdUU6W3DqBDSiF2udNgTFWZoTsliPPmiSVZcSvD2VWH5rG9QZWLtrqDutiSKx/wCG2iccHoUUHqARsXDDQJmnZUSGKaui9axq65iepOqTZanJs8xtKj36Gi2gegJgC2oiZKy4/rW0QHBpCBuBpTsr13ue7YiJYhYSpLswVS6GwpwEKSq5cGhI1K22OxTbfZIN97ACaEIQAhCEARPlYSnQptJ1pvzBcWvuB6/R644rn5FtRQucYSpJsQXACDHT49xHL4PwdWMWTbTK2aNJuzyw8vSkBtJVe/p22Hee8RT+VXDRljVcvaHXMxsE0+t4nq8qKnVZ6aSsuOzEwS6u/a2AK9IHcABAF6qqtLQQF1KVTq2F3ki/9cfPG1L/ABlK/nk/8YrY8LPD0VJWrKehEpN0ktKNv/qjl5L3D98FNC/NK/4wBY/jal/jKV/PJ/4x8FZpBUUCqyZUmxI56bj+uK58l7h++Cmhfmlf8Y4jhZ4ekuKdTlLQAtYAUoMm5A6XN4AsVmq06y+ZVJE9tVtDqRtfa+/X0xJ42pf4ylfzyf8AjFas8L2QNl8zKOgN9tVtKFG4vsTuNz6I5+S9w/fBTQvzSv8AjAFjIrNIcSFt1WTUk94fSR9MffG1L/GUr+eT/wAYrZvhZ4eWUBtnKWgISL2Slkgb7+mOXkvcP3wU0L80r/jAFjKrFJQkqXVJRIHUl9IA/riTnofUyqWmJdaOYQvfUSNKtkkHY3sfkBis3OFrh6dQW3cpqCpKhYgsqIP9cdBlth6kZVZ54hyzw9TGpKh1ulyuJaXKhR5cutGuWmuVe/4XIJTcfv1/UQLzhCEAIQhACIpcrLfbU2o6lbtiwtqNvnt19d4liKWSpDVlMIaOtZ0oVcbqO/QbnqfWe/rAEsIQgBCEIAiWV85oJU2E9rUFDtH0af8AbEsROJUX2lBhCgNV1lVijbuFt7/KIlgBCEIAQhCAIpYrMu0XFNqXoTqLQsgm34Pq9ESxFKpUiWZQphDJShILaFXSg280GwuB06CJYAQhCAEIQgBCEIAxqb97pb8kn6IyYxqb97pb8kn6IyYAQhCAEIQgDyzxBUxuax1XqxNv07EUpTqM0XacnErlIqdCAC1GblbjlOKVsRffUkAm20azUp+q5sY2m0zkxRHaTKYYpc9SG8X1ycpz7bDrOpc0kSyQlTuq2texSQLWBj1XiHLzAOLp1io4qwTQaxNyoAYfn6czMONC9+ypaSRvvtH3EWXuA8XmWVizBVCrJkxaXM/T2pjkj0I1pOnoOkfT4bjtGhShTlF5oq17+7tqldb21tldm75nqebWwU6lSUk7J+u2j0/lbWS5+cMOy8pjTFGD8H51Y2l61RGMGLqEg+zUn5eSqs4JnQt8rPLU6ttnRYK/jKXbviSnpwBjHHuE8C1rF1ZqGXbOGJ6co4q0+thNRnm53lL1vJKC8GmbcsEnsq1b9Y9H17A2C8UyEvSsTYRo1WkpQgy8vOyLT7bRAsNKVpITtttHys4EwRiKky9Br+D6LUqbKW8Hk5uQaeZasLDShSSlNhtsIq+N0pNO0o76Jq0b5u1FW97tLps7PVZSwMkmrp7a630y6eDyu/jtvfynQJUY1qmA8IVOsVKo4VYxtiKm0t7w93VP0pli7SVupUFOICtaAb7pQBcxzStNJXXMrpqsz0jgSTzQTSpgKnnU+DyDkk0+JYvFWpDSn1Wtq/CIvvHrFrCuGGPFnJw7TG/EoUKbplGx4HqTpPJ2+53TsdNttojewZhCZlqpJzGFqS6xW3efU2lyTakTrmkJ1vAizitKUi6rmyQO6NP7hpuWsHlttde9nzZ+ma19bb9xV8Pk472d/JOMllXddrToupT2R9KwfQs6cyaPgipeE02TlKS2GkzaphEovS6VMoWokgAnVpubFRGw2FmZu1Sv0TKzF1YwshaqxJUSdfkdAuoPJZUUkDvIIuB6RERy9lsMSCmso6XhTCU08UJfcFBC23Gk3ISUMuMnYqJBKiBc7bxzotKzXZqbLmJMZYYnqaNXPl5TDz0u64CkgBLiptwJ3sTdBuAR33HnYmvSxddYlzvZR0le8sqS1smu1br4vmdNCMsOsuXdt6Wsrvvf0PPlSpmUeGcvhU8F4zrLuJq/gaqTD3gtUcmkVECU1uTE4FFehSVnsKBQQpWncdmMug4Oo+DcY5MmiLqAOOKDUpbEPPn33hUUpp6HklwLURqSu5BFiAbdI9CSGWuXdK8ZeK8CYflPHDamqjyKayjwxCr6ku2T2wbm4Ve9zHZHDWHS/TJo0Gnl6iIU3TXPBkapJKkaFBk2u2CgBJCbXAt0jtqcdi1KMczTUr3a1vGSS8IuSa8Lq2iXPDASWVu2nzvHXx7L8+erdW8J1Dw9Q8nZFvD8uyzz5uacm0tuFX3YOqR2rk2OlKBb1R2GfXm4E/njTv8AfjvJzBFfoky6cq38IYXlZ1apmfacw4p5UzMk7uqU0+yCSAAbgnbr3RlUfDOLJuYSrMaqYZr7EstExJIlqCuWVLzCTs6FOTDwuBe1gCL9Y5amKp1Ma+IOd7tyyu+bXle1vXbyNVRcaDw0Y8mrq1tVvvfx03PI+cOK8OGk4pzIwjTKtMVam4mWy1iOq4oQxMMTDE0ltUvKyjZ1FlOlSUoUgXTcknqdlzfXJ0DGuLsfVecRX5Gl1KWdM9R8SKkq5h3lpb/c7Uq6C08lRudIHaC1XubW9LT2U+V1Tn52q1LLjDE1O1IFM5MPUlhbswDa4cUU3X0HW/SMmfy5y+qtdZxRVMD0CbrEuUlqoP05lyYbKfNKXCnULd2+0enT/EGGp+zShK0U09dWnktG99Esr2stfdaunhUwFSo6jbXat85b6a+8t77eFqvyew9hWUzyzTrMjJNM1N5+SIJWQ4WnZdC13ST0KwD067Rd7oBaWCgrBSRpHf6o69vDGG2q+5itrD9ORWnmPBXKimVQJlbNweWXbaim4Bte2wjsHbcpd9VtJ83r83rj53HYr+rqRqa6Ritf2xS8tLndh6PsVJPm2/N3PjACWG0pbLYCAAg9U7dIkiNiwYbA120C2s3V07798Ytbq8rQKTN1qdbmXJeTaLziZaXW+6UjrpbQCpR9QBMcZuZ0IqPyoMtPxVjr2Jq32eHlQZafirHXsTVvs8AW5EKUp8LWvkEKLaRzb7EXV2fm6/PFTL4pctUONt+Jseq137QwRVrJsO/9zxxHE7loJlTnivH9yhI3wXVtGxPQeD9d9z8kAXDCKj8qDLT8VY69iat9njgjily1W6414lx8nRbtHBFW0qv6P3PAFvwio/Kgy0/FWOvYmrfZ4eVBlp+KsdexNW+zwBas6hLkm+hcuX0qaUC0DYuCx7I+XpE8U25xRZaTcg5qo2YTYcbUClOCqsh0bEbEMbH0EH0RkeVBlp+KsdexNW+zwBbkIqB7ily1ZbLnibHq7EDSjBNWJ6/4vHPyoMtPxVjr2Jq32eALchFR+VBlp+KsdexNW+zxwVxS5ah1LXibHp1AnUME1bSLdx/c8AWy2lImXVhgpKkou5fZfXb5v9sTRT6OJ3LMPuL8V4/uoJG+C6sU7X6Dwfb1/NEnlQZafirHXsTVvs8AW5CKgb4pctXFLT4mx6nQq11YJq1lesfufpHPyoMtPxVjr2Jq32eALciGbSlbJSpgvDUk6AbHzhv83X5oqhXFFlolJV4ox2bC9hgmrXP/ANvETnFBlpMSySaRmCjVoVZOC6slY3BsbMf0+q8AXFCKj8qDLT8VY69iat9njoMd8Z2UuBsK1DEtRp+M0IlWlcoPYSqMulx4ghtvmOspQkrXpSLnqoQBX+P667WMLZ01qRBM7jnFVNy0pLiU9pSXFsSTmjtDzPCJly5tug9e/wBayUnK06TYp8kylmXlmksstp6IQkAJSPUAAI8MUfETeD8U5J5c48l6vNTeE257MbGyKZRZqoFFbnW3kyku8JdCyhaFzj7gvYfudPqj0j5UGWn4qx17E1b7PAFuRR2Reds7mNmrmxg+fkGpWUodXbdoDoUCZ6Qb1yD7oP4QTO0+aHqCkje4J+Yp4qsJy9AqXuVwvjyerXgbppzPuMqaEuTJFm0lS2AlPaIuTta940+Twm5w9s5VYvbptenGaRIzGHcT+BScxPOOJnGm5hT/ACmkqUQJtvUSEgBTjnS5gD1FCKj8qDLP8WY59iat9nji3xR5aLBPifHibKKe1gmrb2PX/o/SALehFR+VBlp+KsdexNW+zx8XxRZaISVeKMeKsL2GCatc/wD28AR8SyVV+gYXyuZQFuY8xNJ0p1PM0kSjQXOTSrDcjkyq0+i6xf0G30IQ0hLbaAlCAEpSBYADoIoLCVWRnXn21mKzRcRyeGsA0LxdSFVGmTFPVMVSovIVNOpbeQhaktMSrLeo3T93dA74v+AEIQgBCEIAhlkpSHNLBau4okE+cb+d88TRDLBIDmnnfvir8wk737r/AIPoiaAEIQgBFK8QzjeD8Q5ZZxgBCMN4oZo1TdOyU0yrDwJZWbiyUTDko6SdhyzF1RqOa+DZPMPL6uYInTMBFbkJmTStlRBQtbCwlZt/FNlD0KCT1AgDboRQ+BuJ7D7eD6Mxjyg43lsRsSbTFWbRg+qOpE2hOl0pWhgpUCoEgg2IIjulcUeWiXEtikY8OoE6hgmrWFvT+54At6EVH5UGWn4qx17E1b7PDyoMtPxVjr2Jq32eALciGVSlDJSlgsjWs6Sb9VE3+fr88VMjily1W4tHibHqdBA1HBFWsq47v3PHGX4ncs229IpePz21n7pgurE7qJ75fp6PVaALhhFRHihy0AJ8U47Nv/JNW+zxxa4pMtXW0ueJseo1C+lWCasCPl/c8AW/CKj8qDLT8VY69iat9njg7xS5atJCvE2PV3UE2TgirEi/f/0fpAFsuJSZhlRYKikKssHZG3+2Jop5fE7lmX2l+K8f3Tq83BdWCd/4w8H39US+VBlp+KsdexNW+zwBbkIqA8UuWvODPibHu6dWv3EVbT16X8H6xz8qDLT8VY69iat9ngC3IRUflQZafirHXsTVvs8b3gjHFFzAo665QpeqsyyH1S5TUqZMSLpUkJJIbfQlZT2h2rWO/ogDu5NKUSjCEMFlKW0gNk3KBbzT8nSJohkwkSbATzrBtNucSXLW/CJ3v6fXE0AIQhACEIQAhCEAY1N+90t+ST9EZMY1N+90t+ST9EZMAIQhACEIQAhCEAIQhACEIQAhCEAIQhACEIQAhCEAI+KBUkpSopJFgR3euPsIA4tpUhCUqWVkAAqPUn07RyhCAEIQgBHAIWHi4XVFJSEhFhYEE7+ne4/ojnCAEIQgBCEIA4PoW6y4228ppa0lKXEgEoJGxAO23rjnCEAIQhACEIQBwShYdWsuqUlQACCBZNutu/f/AGRzhCAEIQgBHB1C3EaUOqbNwdSQCdje2/p6fPHOEAI6bEGDMKYrmqTO4mw9IVR6hTiajTVTbId8FmkghLyArYLTc2V1B3FjHcwgDpsPYOwrhN2pP4aw/I012szi5+oOS7IQubmVAAuuK6rVYAXPcAI7mEIARG22tC3VKeUsLVqSkgWQNIFhbuuCd/SfVEkIAQhCAEIQgDg6hawAh1TZCgokAG4B3G/p6RzhCAEIQgBCEIA4NoWgK1uqXdRULgCwPdt6I5whACEIQAjg4ha1NqS6pAQrUoADtixFjf1kHb0RzhACEIQAhCEAI4NIW2jSt1Th1KOogA2JJA29A2+aOcIAQhCAEIQgDgpC1OIWHVJSm90gCyr+n5I5whACEIQAhCEAcGULbZQ246p1SUgKWoAFRt1Ntt45whACEIQAhCEAIQhAGNTfvdLfkk/RGTGNTfvdLfkk/RGTACEIQAhCEAIQhACEIQAhCEAIQhACEIQAhCEAIQhACEIQAhCEAIQhACEIQAhCEAIQhACEIQAhCEAIQhACEIQAhCEAIQhACEIQAhCEAIQhACEIQAhCEAIQhACEIQAhCEAIQhACEIQAhCEAIQhACEIQAhCEAIQhACEIQAhCEAIQhACEIQAhCEAIQhACEIQAhCEAf//Z;" vertex="1" parent="1">
          <mxGeometry x="88.00235294117658" y="253.9970588235295" width="720" height="253" as="geometry" />
        </mxCell>
      </root>
    </mxGraphModel>
  </diagram>
  <diagram id="zMZiMOrZPZf1vji27xb1" name="Page-2">
    <mxGraphModel dx="1434" dy="772" grid="0" gridSize="10" guides="1" tooltips="1" connect="1" arrows="1" fold="1" page="1" pageScale="1" pageWidth="850" pageHeight="1100" math="0" shadow="0">
      <root>
        <mxCell id="0" />
        <mxCell id="1" parent="0" />
        <mxCell id="aseoaYK-O3uZjzhDyAtj-1" value="Light counter block" style="rounded=0;whiteSpace=wrap;html=1;" vertex="1" parent="1">
          <mxGeometry x="231" y="47" width="253" height="135" as="geometry" />
        </mxCell>
        <mxCell id="aseoaYK-O3uZjzhDyAtj-2" value="en" style="html=1;verticalAlign=bottom;endArrow=block;curved=0;rounded=0;" edge="1" parent="1">
          <mxGeometry width="80" relative="1" as="geometry">
            <mxPoint x="151" y="78" as="sourcePoint" />
            <mxPoint x="231" y="78" as="targetPoint" />
          </mxGeometry>
        </mxCell>
        <mxCell id="aseoaYK-O3uZjzhDyAtj-3" value="clk" style="html=1;verticalAlign=bottom;endArrow=block;curved=0;rounded=0;" edge="1" parent="1">
          <mxGeometry width="80" relative="1" as="geometry">
            <mxPoint x="151" y="116" as="sourcePoint" />
            <mxPoint x="231" y="116" as="targetPoint" />
          </mxGeometry>
        </mxCell>
        <mxCell id="aseoaYK-O3uZjzhDyAtj-4" value="rst_n" style="html=1;verticalAlign=bottom;endArrow=circle;rounded=0;endFill=0;" edge="1" parent="1">
          <mxGeometry x="0.082" y="-20" width="80" relative="1" as="geometry">
            <mxPoint x="358" y="242" as="sourcePoint" />
            <mxPoint x="357.33" y="182" as="targetPoint" />
            <mxPoint as="offset" />
          </mxGeometry>
        </mxCell>
        <mxCell id="aseoaYK-O3uZjzhDyAtj-5" value="last" style="html=1;verticalAlign=bottom;endArrow=block;curved=0;rounded=0;" edge="1" parent="1">
          <mxGeometry width="80" relative="1" as="geometry">
            <mxPoint x="484" y="75" as="sourcePoint" />
            <mxPoint x="564" y="75" as="targetPoint" />
          </mxGeometry>
        </mxCell>
        <mxCell id="aseoaYK-O3uZjzhDyAtj-6" value="cnt_out[4:0]" style="html=1;verticalAlign=bottom;endArrow=block;curved=0;rounded=0;" edge="1" parent="1">
          <mxGeometry width="80" relative="1" as="geometry">
            <mxPoint x="484" y="148" as="sourcePoint" />
            <mxPoint x="564" y="148" as="targetPoint" />
          </mxGeometry>
        </mxCell>
        <mxCell id="aseoaYK-O3uZjzhDyAtj-7" value="init[2:0]" style="html=1;verticalAlign=bottom;endArrow=block;curved=0;rounded=0;" edge="1" parent="1">
          <mxGeometry width="80" relative="1" as="geometry">
            <mxPoint x="151" y="153" as="sourcePoint" />
            <mxPoint x="231" y="153" as="targetPoint" />
          </mxGeometry>
        </mxCell>
      </root>
    </mxGraphModel>
  </diagram>
</mxfile>
